<svg width="134" height="32" viewBox="0 0 134 32" fill="none" xmlns="http://www.w3.org/2000/svg">
<path fill-rule="evenodd" clip-rule="evenodd" d="M11.9775 11.1098C11.6308 10.9565 11.2721 10.8259 10.9014 10.7197C7.96599 9.87772 4.8533 10.7146 2.24281 12.7725C2.02632 12.9433 1.94414 13.2353 2.03896 13.4953C3.1846 16.6307 5.39467 18.9942 8.33005 19.8362C8.58194 19.9083 8.83509 19.9682 9.0895 20.016C8.92421 20.2165 8.76746 20.4259 8.61924 20.6439C6.89493 23.183 6.69235 26.4251 7.79785 29.5752C7.88951 29.8362 8.13792 30.008 8.41255 29.9997C11.7247 29.9009 14.6493 28.5388 16.3739 25.9997C16.5218 25.782 16.6584 25.5589 16.7845 25.3307C16.9204 25.5525 17.0673 25.7689 17.225 25.9799C19.0644 28.4358 22.0484 29.6597 25.3615 29.6039C25.6361 29.5991 25.8763 29.4162 25.9559 29.151C26.9157 25.9528 26.5646 22.7234 24.7253 20.2678C24.5676 20.0571 24.4013 19.8554 24.2269 19.6626C24.4784 19.603 24.7287 19.5312 24.9772 19.4474C27.8708 18.4693 29.97 16.0051 30.9705 12.8193C31.0533 12.5555 30.9576 12.2677 30.7338 12.1074C28.0314 10.1732 24.8836 9.48252 21.99 10.4606C21.7419 10.5444 21.4995 10.6394 21.2627 10.7449C21.2868 10.4855 21.2988 10.2235 21.2988 9.95899C21.2988 6.88159 19.649 4.09133 16.9719 2.12238C16.75 1.95921 16.4488 1.95921 16.2269 2.12238C13.5498 4.09133 11.9 6.88159 11.9 9.95899C11.9 10.3475 11.9263 10.7312 11.9775 11.1098ZM16.2589 18.3176C14.5244 19.4952 12.6077 20.1499 10.6902 20.1604C10.3085 20.5189 9.96398 20.9202 9.66248 21.3641C8.24125 23.4564 8.04499 26.0997 8.84236 28.702C11.5366 28.5114 13.9097 27.3714 15.3307 25.2794C15.6644 24.788 15.9308 24.2662 16.1321 23.7216C16.1438 23.6722 16.1609 23.6244 16.1833 23.5791C16.7481 21.9528 16.7475 20.132 16.2589 18.3176ZM17.4661 17.9358C18.0217 19.9685 18.0284 22.0095 17.4285 23.8462C17.6444 24.3249 17.9121 24.7819 18.2338 25.2115C19.7492 27.235 22.1723 28.2631 24.8725 28.3275C25.5495 25.6908 25.2319 23.0596 23.7165 21.0359C22.2741 19.1099 20.0096 18.0859 17.4661 17.9358ZM12.3672 12.7524C11.8084 12.4044 11.2029 12.1316 10.5556 11.9458C8.13695 11.252 5.58904 11.9044 3.39573 13.4937C4.43107 16.0096 6.25714 17.9164 8.6758 18.6099C10.9902 19.2737 13.423 18.7052 15.5503 17.2621C14.0561 15.9991 12.9506 14.4575 12.3672 12.7524ZM23.0357 18.5745C23.5543 18.5206 24.0695 18.4097 24.5755 18.2386C26.9597 17.4329 28.6963 15.4429 29.615 12.8815C27.3512 11.396 24.7762 10.8635 22.3919 11.6695C20.1225 12.4366 18.4399 14.2761 17.4908 16.6607C19.5786 16.7751 21.4991 17.4176 23.0357 18.5745ZM19.8614 11.5382C19.9752 11.0251 20.0346 10.4973 20.0346 9.95899C20.0346 7.42339 18.7155 5.13063 16.5993 3.438C14.4834 5.13063 13.1642 7.42339 13.1642 9.95899C13.1642 12.3729 14.3592 14.5662 16.2993 16.2317C17.0705 14.2717 18.285 12.6393 19.8614 11.5382Z" fill="black" stroke="black" stroke-width="0.75"/>
<path d="M40.24 24.36C39.784 24.36 39.4 24.216 39.088 23.928C38.776 23.64 38.62 23.28 38.62 22.848V10.788C38.62 10.332 38.776 9.96 39.088 9.672C39.4 9.384 39.784 9.24 40.24 9.24C40.72 9.24 41.104 9.384 41.392 9.672C41.704 9.96 41.86 10.332 41.86 10.788V14.244C41.86 14.724 42.1 14.964 42.58 14.964H47.44C47.92 14.964 48.16 14.724 48.16 14.244V10.788C48.16 10.332 48.304 9.96 48.592 9.672C48.904 9.384 49.3 9.24 49.78 9.24C50.26 9.24 50.644 9.384 50.932 9.672C51.244 9.96 51.4 10.332 51.4 10.788V22.848C51.4 23.304 51.244 23.676 50.932 23.964C50.644 24.228 50.26 24.36 49.78 24.36C49.324 24.36 48.94 24.228 48.628 23.964C48.316 23.676 48.16 23.304 48.16 22.848V18.636C48.16 18.156 47.92 17.916 47.44 17.916H42.58C42.1 17.916 41.86 18.156 41.86 18.636V22.848C41.86 23.304 41.704 23.676 41.392 23.964C41.104 24.228 40.72 24.36 40.24 24.36ZM59.5473 24.36C57.9153 24.36 56.5353 23.88 55.4072 22.92C54.3033 21.936 53.7513 20.592 53.7513 18.888C53.7513 17.112 54.2913 15.72 55.3713 14.712C56.4753 13.704 57.8553 13.2 59.5113 13.2C60.6873 13.2 61.6593 13.416 62.4273 13.848C63.1953 14.28 63.7713 14.832 64.1553 15.504C64.5393 16.176 64.7313 16.884 64.7313 17.628C64.7313 18.876 64.1793 19.5 63.0753 19.5H57.0993C56.9073 19.5 56.8113 19.62 56.8113 19.86C56.8113 20.412 57.1113 20.856 57.7113 21.192C58.3353 21.504 59.0313 21.66 59.7993 21.66C60.2793 21.66 60.7593 21.6 61.2393 21.48C61.7193 21.336 62.1393 21.132 62.4993 20.868C62.7393 20.7 62.9913 20.616 63.2553 20.616C63.6153 20.616 63.9153 20.748 64.1553 21.012C64.4193 21.276 64.5513 21.588 64.5513 21.948C64.5513 22.38 64.3233 22.788 63.8673 23.172C63.4353 23.532 62.7993 23.82 61.9593 24.036C61.1433 24.252 60.3393 24.36 59.5473 24.36ZM61.4193 17.412C61.4673 17.412 61.5273 17.4 61.5993 17.376C61.6953 17.352 61.7433 17.268 61.7433 17.124C61.7433 16.764 61.5153 16.44 61.0593 16.152C60.6273 15.84 60.0633 15.684 59.3673 15.684C58.6233 15.684 58.0113 15.852 57.5312 16.188C57.0753 16.5 56.8473 16.824 56.8473 17.16C56.8473 17.328 56.9433 17.412 57.1353 17.412H61.4193ZM71.913 24.36C70.305 24.36 68.997 23.856 67.989 22.848C67.005 21.816 66.513 20.448 66.513 18.744C66.513 17.04 66.993 15.696 67.953 14.712C68.937 13.704 70.221 13.2 71.805 13.2C72.933 13.2 73.917 13.596 74.757 14.388C74.853 14.1 75.033 13.86 75.297 13.668C75.561 13.476 75.873 13.38 76.233 13.38C76.713 13.38 77.097 13.524 77.385 13.812C77.697 14.076 77.853 14.4 77.853 14.784V22.956C77.853 23.364 77.697 23.7 77.385 23.964C77.097 24.228 76.713 24.36 76.233 24.36C75.441 24.36 74.949 24.012 74.757 23.316C73.989 24.012 73.041 24.36 71.913 24.36ZM72.165 21.444C72.933 21.444 73.545 21.192 74.001 20.688C74.457 20.16 74.685 19.512 74.685 18.744C74.685 17.952 74.457 17.316 74.001 16.836C73.545 16.356 72.933 16.116 72.165 16.116C71.421 16.116 70.809 16.356 70.329 16.836C69.873 17.316 69.645 17.952 69.645 18.744C69.645 19.512 69.873 20.16 70.329 20.688C70.809 21.192 71.421 21.444 72.165 21.444ZM82.2132 24.36C81.7572 24.36 81.3732 24.228 81.0612 23.964C80.7492 23.7 80.5932 23.364 80.5932 22.956V9.564C80.5932 9.18 80.7372 8.856 81.0252 8.592C81.3372 8.304 81.7332 8.16 82.2132 8.16C82.6692 8.16 83.0412 8.304 83.3292 8.592C83.6172 8.856 83.7612 9.192 83.7612 9.6V22.92C83.7612 23.328 83.6052 23.676 83.2932 23.964C83.0052 24.228 82.6452 24.36 82.2132 24.36ZM90.4544 24.36C89.9504 24.36 89.4944 24.204 89.0864 23.892C88.6784 23.556 88.4264 23.124 88.3304 22.596L86.1344 10.896C86.0864 10.416 86.2184 10.02 86.5304 9.708C86.8664 9.396 87.2744 9.24 87.7544 9.24C88.1624 9.24 88.5104 9.36 88.7984 9.6C89.0864 9.84 89.2664 10.164 89.3384 10.572L90.6344 18.456C90.6824 18.744 90.7904 18.888 90.9584 18.888C91.1024 18.888 91.2104 18.756 91.2824 18.492L93.0104 12.12C93.1304 11.664 93.3584 11.328 93.6944 11.112C94.0304 10.872 94.3904 10.752 94.7744 10.752C95.1584 10.752 95.5184 10.872 95.8544 11.112C96.1904 11.328 96.4184 11.664 96.5384 12.12L98.2664 18.492C98.3384 18.756 98.4464 18.888 98.5904 18.888C98.7824 18.888 98.8904 18.744 98.9144 18.456L100.21 10.572C100.282 10.164 100.462 9.84 100.75 9.6C101.062 9.36 101.41 9.24 101.794 9.24C102.274 9.24 102.67 9.396 102.982 9.708C103.318 10.02 103.462 10.416 103.414 10.896L101.182 22.596C101.086 23.124 100.834 23.556 100.426 23.892C100.018 24.204 99.5624 24.36 99.0584 24.36C98.6024 24.36 98.1704 24.216 97.7624 23.928C97.3784 23.616 97.0904 23.208 96.8984 22.704L95.0984 16.368C95.0264 16.104 94.9184 15.972 94.7744 15.972C94.6064 15.972 94.4864 16.104 94.4144 16.368L92.6144 22.704C92.4704 23.208 92.1944 23.616 91.7864 23.928C91.3784 24.216 90.9344 24.36 90.4544 24.36ZM110.313 24.36C108.681 24.36 107.301 23.88 106.173 22.92C105.069 21.936 104.517 20.592 104.517 18.888C104.517 17.112 105.057 15.72 106.137 14.712C107.241 13.704 108.621 13.2 110.277 13.2C111.453 13.2 112.425 13.416 113.193 13.848C113.961 14.28 114.537 14.832 114.921 15.504C115.305 16.176 115.497 16.884 115.497 17.628C115.497 18.876 114.945 19.5 113.841 19.5H107.865C107.673 19.5 107.577 19.62 107.577 19.86C107.577 20.412 107.877 20.856 108.477 21.192C109.101 21.504 109.797 21.66 110.565 21.66C111.045 21.66 111.525 21.6 112.005 21.48C112.485 21.336 112.905 21.132 113.265 20.868C113.505 20.7 113.757 20.616 114.021 20.616C114.381 20.616 114.681 20.748 114.921 21.012C115.185 21.276 115.317 21.588 115.317 21.948C115.317 22.38 115.089 22.788 114.633 23.172C114.201 23.532 113.565 23.82 112.725 24.036C111.909 24.252 111.105 24.36 110.313 24.36ZM112.185 17.412C112.233 17.412 112.293 17.4 112.365 17.376C112.461 17.352 112.509 17.268 112.509 17.124C112.509 16.764 112.281 16.44 111.825 16.152C111.393 15.84 110.829 15.684 110.133 15.684C109.389 15.684 108.777 15.852 108.297 16.188C107.841 16.5 107.613 16.824 107.613 17.16C107.613 17.328 107.709 17.412 107.901 17.412H112.185ZM119.303 24.36C118.847 24.36 118.463 24.228 118.151 23.964C117.839 23.7 117.683 23.364 117.683 22.956V9.564C117.683 9.18 117.827 8.856 118.115 8.592C118.427 8.304 118.823 8.16 119.303 8.16C119.759 8.16 120.131 8.304 120.419 8.592C120.707 8.856 120.851 9.192 120.851 9.6V22.92C120.851 23.328 120.695 23.676 120.383 23.964C120.095 24.228 119.735 24.36 119.303 24.36ZM125.42 24.36C124.964 24.36 124.58 24.228 124.268 23.964C123.956 23.7 123.8 23.364 123.8 22.956V9.564C123.8 9.18 123.944 8.856 124.232 8.592C124.544 8.304 124.94 8.16 125.42 8.16C125.876 8.16 126.248 8.304 126.536 8.592C126.824 8.856 126.968 9.192 126.968 9.6V22.92C126.968 23.328 126.812 23.676 126.5 23.964C126.212 24.228 125.852 24.36 125.42 24.36Z" fill="black"/>
</svg>
