<svg width="48" height="24" viewBox="0 0 48 24" fill="none" xmlns="http://www.w3.org/2000/svg">
<path fill-rule="evenodd" clip-rule="evenodd" d="M8.90551 8.22304C8.63082 8.10163 8.34661 7.99814 8.05288 7.91409C5.72707 7.24721 3.26077 7.91004 1.19239 9.53988C1.02085 9.67517 0.955743 9.90638 1.03087 10.1124C1.9386 12.5956 3.68972 14.4675 6.01553 15.1344C6.21511 15.1914 6.41569 15.2389 6.61727 15.2767C6.4863 15.4355 6.36211 15.6013 6.24466 15.774C4.87843 17.785 4.71791 20.3528 5.59385 22.8476C5.66647 23.0543 5.86329 23.1904 6.0809 23.1838C8.70519 23.1056 11.0225 22.0268 12.389 20.0158C12.5062 19.8434 12.6143 19.6667 12.7143 19.486C12.8219 19.6617 12.9384 19.833 13.0633 20.0001C14.5207 21.9452 16.8851 22.9145 19.5101 22.8703C19.7277 22.8665 19.918 22.7217 19.9811 22.5117C20.7416 19.9787 20.4634 17.421 19.0061 15.4761C18.8811 15.3093 18.7494 15.1495 18.6111 14.9968C18.8105 14.9496 19.0088 14.8928 19.2056 14.8264C21.4984 14.0518 23.1616 12.1001 23.9544 9.57698C24.02 9.36798 23.9441 9.14006 23.7669 9.0131C21.6256 7.4812 19.1315 6.93421 16.8388 7.70887C16.6422 7.77526 16.4501 7.85047 16.2626 7.93402C16.2816 7.72856 16.2911 7.52108 16.2911 7.31158C16.2911 4.87428 14.984 2.66439 12.8627 1.10498C12.687 0.975748 12.4483 0.975748 12.2725 1.10498C10.1513 2.66439 8.84417 4.87428 8.84417 7.31158C8.84417 7.61927 8.86495 7.92317 8.90551 8.22304ZM12.2978 13.9316C10.9236 14.8643 9.40483 15.3827 7.8856 15.3911C7.5831 15.675 7.31015 15.9928 7.07126 16.3444C5.94516 18.0015 5.78967 20.095 6.42145 22.156C8.5562 22.0051 10.4365 21.1022 11.5624 19.4453C11.8268 19.0561 12.0379 18.6429 12.1974 18.2115C12.2067 18.1724 12.2202 18.1346 12.238 18.0987C12.6855 16.8106 12.685 15.3686 12.2978 13.9316ZM13.2544 13.6292C13.6946 15.2391 13.6999 16.8556 13.2246 18.3102C13.3956 18.6894 13.6077 19.0513 13.8626 19.3916C15.0634 20.9941 16.9832 21.8084 19.1227 21.8594C19.6591 19.7712 19.4075 17.6873 18.2067 16.0844C17.0639 14.5591 15.2697 13.7481 13.2544 13.6292ZM9.21428 9.52398C8.77155 9.24834 8.29175 9.03227 7.77891 8.88512C5.86253 8.33561 3.84373 8.8523 2.10588 10.1111C2.92623 12.1036 4.37309 13.6138 6.28948 14.1631C8.12323 14.6889 10.0509 14.2385 11.7364 13.0956C10.5525 12.0953 9.67654 10.8744 9.21428 9.52398ZM17.6674 14.1351C18.0783 14.0924 18.4865 14.0046 18.8874 13.869C20.7765 13.2309 22.1525 11.6548 22.8804 9.6262C21.0867 8.44971 19.0464 8.02792 17.1573 8.66627C15.3591 9.27383 14.0259 10.7308 13.2739 12.6193C14.9281 12.7099 16.4499 13.2188 17.6674 14.1351ZM15.1522 8.56228C15.2424 8.1559 15.2895 7.7379 15.2895 7.31158C15.2895 5.30338 14.2443 3.48752 12.5675 2.14695C10.891 3.48752 9.84581 5.30338 9.84581 7.31158C9.84581 9.22336 10.7926 10.9605 12.3299 12.2796C12.9409 10.7272 13.9032 9.43437 15.1522 8.56228Z" fill="black" stroke="black" stroke-width="0.75"/>
</svg>
