<svg width="768" height="265" viewBox="0 0 768 265" fill="none" xmlns="http://www.w3.org/2000/svg">
<rect width="768" height="265" fill="#F0F4F6"/>
<mask id="mask0" mask-type="alpha" maskUnits="userSpaceOnUse" x="0" y="0" width="768" height="265">
<rect width="768" height="265" fill="#F0F4F6"/>
</mask>
<g mask="url(#mask0)">
<path d="M275.767 -41.0692C264.692 -41.0692 253.725 -38.8878 243.493 -34.6496C233.261 -30.4113 223.964 -24.1993 216.133 -16.3681C208.302 -8.53689 202.09 0.760092 197.852 10.992C193.614 21.224 191.432 32.1905 191.432 43.2655L275.767 43.2655L275.767 -41.0692Z" fill="#E1E9EE"/>
<path d="M275.767 204.583C264.692 204.583 253.725 206.764 243.493 211.002C233.261 215.241 223.964 221.453 216.133 229.284C208.302 237.115 202.09 246.412 197.852 256.644C193.614 266.876 191.432 277.843 191.432 288.918L275.767 288.918L275.767 204.583Z" fill="#E1E9EE"/>
<path d="M54.3347 -41.0692C43.2597 -41.0692 32.2931 -38.8878 22.0612 -34.6496C11.8292 -30.4113 2.53225 -24.1993 -5.29895 -16.3681C-13.1301 -8.53689 -19.3422 0.760092 -23.5804 10.992C-27.8186 21.224 -30 32.1905 -30 43.2655L54.3347 43.2655L54.3347 -41.0692Z" fill="#E1E9EE"/>
<path d="M489.416 -41.0692C478.341 -41.0692 467.374 -38.8878 457.142 -34.6496C446.91 -30.4113 437.613 -24.1993 429.782 -16.3681C421.951 -8.53689 415.739 0.760092 411.5 10.992C407.262 21.224 405.081 32.1905 405.081 43.2655L489.416 43.2655L489.416 -41.0692Z" fill="#E1E9EE"/>
<path d="M54.3347 204.583C43.2597 204.583 32.2931 206.764 22.0612 211.002C11.8292 215.241 2.53225 221.453 -5.29895 229.284C-13.1301 237.115 -19.3422 246.412 -23.5804 256.644C-27.8186 266.876 -30 277.843 -30 288.918L54.3347 288.918L54.3347 204.583Z" fill="#E1E9EE"/>
<path d="M489.416 204.583C478.341 204.583 467.374 206.764 457.142 211.002C446.91 215.241 437.613 221.453 429.782 229.284C421.951 237.115 415.739 246.412 411.5 256.644C407.262 266.876 405.081 277.843 405.081 288.918L489.416 288.918L489.416 204.583Z" fill="#E1E9EE"/>
<path d="M54.3347 -41.0692C43.2597 -41.0692 32.2931 -38.8878 22.0612 -34.6496C11.8292 -30.4113 2.53225 -24.1993 -5.29895 -16.3681C-13.1301 -8.53689 -19.3422 0.760092 -23.5804 10.992C-27.8186 21.224 -30 32.1905 -30 43.2655L54.3347 43.2655L54.3347 -41.0692Z" fill="#E1E9EE"/>
<path d="M489.416 -41.0692C478.341 -41.0692 467.374 -38.8878 457.142 -34.6496C446.91 -30.4113 437.613 -24.1993 429.782 -16.3681C421.951 -8.53689 415.739 0.760092 411.5 10.992C407.262 21.224 405.081 32.1905 405.081 43.2655L489.416 43.2655L489.416 -41.0692Z" fill="#E1E9EE"/>
<path d="M54.3347 204.583C43.2597 204.583 32.2931 206.764 22.0612 211.002C11.8292 215.241 2.53225 221.453 -5.29895 229.284C-13.1301 237.115 -19.3422 246.412 -23.5804 256.644C-27.8186 266.876 -30 277.843 -30 288.918L54.3347 288.918L54.3347 204.583Z" fill="#E1E9EE"/>
<path d="M489.416 204.583C478.341 204.583 467.374 206.764 457.142 211.002C446.91 215.241 437.613 221.453 429.782 229.284C421.951 237.115 415.739 246.412 411.5 256.644C407.262 266.876 405.081 277.843 405.081 288.918L489.416 288.918L489.416 204.583Z" fill="#E1E9EE"/>
<path d="M171.972 81.7566C160.897 81.7566 149.93 83.938 139.698 88.1762C129.466 92.4145 120.169 98.6265 112.338 106.458C104.507 114.289 98.2948 123.586 94.0566 133.818C89.8183 144.05 87.637 155.016 87.637 166.091L171.972 166.091L171.972 81.7566Z" fill="#E1E9EE"/>
<path d="M385.618 81.7566C374.543 81.7566 363.577 83.938 353.345 88.1762C343.113 92.4145 333.816 98.6265 325.985 106.458C318.154 114.289 311.942 123.586 307.703 133.818C303.465 144.05 301.284 155.016 301.284 166.091L385.618 166.091L385.618 81.7566Z" fill="#E1E9EE"/>
<path d="M127.425 0.449505L169.809 -41.9341V42.8331H85.0415L127.425 0.449505Z" fill="#E1E9EE"/>
<path d="M127.425 246.101L169.809 203.718V288.485H85.0415L127.425 246.101Z" fill="#E1E9EE"/>
<path d="M341.073 0.449505L383.456 -41.9341V42.8331H298.689L341.073 0.449505Z" fill="#E1E9EE"/>
<path d="M341.073 246.101L383.456 203.718V288.485H298.689L341.073 246.101Z" fill="#E1E9EE"/>
<path d="M233.816 123.275L276.199 80.8919V165.659H191.432L233.816 123.275Z" fill="#E1E9EE"/>
<path d="M12.3836 123.275L54.7672 80.8919V165.659H-30L12.3836 123.275Z" fill="#E1E9EE"/>
<path d="M447.464 123.275L489.848 80.8919V165.659H405.081L447.464 123.275Z" fill="#E1E9EE"/>
<path d="M219.66 125.159H223.079L254.423 157.073H274.369L242.455 125.159H245.874C261.831 125.159 272.089 115.471 272.089 101.224C272.089 86.9764 261.831 77.2883 245.874 77.2883H204.842V157.073H219.66V125.159ZM219.66 112.621V89.8259H245.874C252.713 89.8259 257.272 94.3849 257.272 101.224C257.272 108.062 252.713 112.621 245.874 112.621H219.66Z" fill="#262626"/>
<path d="M297.276 113.761C298.188 109.43 301.722 106.922 309.13 106.922C318.248 106.922 321.44 110.912 321.44 117.75V118.89L302.291 120.6C288.614 121.854 279.838 128.008 279.838 139.406C279.838 152.513 289.754 158.782 301.722 158.782C312.549 158.782 318.02 154.793 321.44 150.234V157.073H335.573V117.75C335.573 112.051 334.091 107.378 331.128 103.959C326.683 98.7161 318.818 96.0946 309.13 96.0946C293.515 96.0946 284.511 103.047 282.687 113.761H297.276ZM304.001 147.954C298.074 147.954 293.971 145.105 293.971 139.406C293.971 134.277 297.618 131.314 302.861 130.858L321.44 129.148V131.428C321.44 142.255 313.689 147.954 304.001 147.954Z" fill="#262626"/>
<path d="M393.588 127.438C393.588 139.406 386.75 147.384 377.289 147.384C367.145 147.384 360.991 139.976 360.991 127.438C360.991 114.901 367.145 107.492 377.289 107.492C386.75 107.492 393.588 115.471 393.588 127.438ZM393.018 157.073H407.152V77.2883H393.018V105.213C389.599 100.084 383.558 96.0946 374.44 96.0946C356.774 96.0946 346.857 110.342 346.857 127.438C346.857 144.535 356.774 158.782 374.44 158.782C383.558 158.782 389.599 154.793 393.018 149.664V157.073Z" fill="#262626"/>
<path d="M422.403 157.073H436.536V97.8043H422.403V157.073ZM422.403 89.8259H436.536V77.2883H422.403V89.8259Z" fill="#262626"/>
<path d="M492.25 157.073H506.383V97.8043H492.25V130.288C492.25 141.116 486.209 146.815 477.661 146.815C469.113 146.815 465.351 142.255 465.351 133.707V97.8043H451.218V134.847C451.218 150.234 459.994 158.782 474.242 158.782C482.22 158.782 488.831 155.933 492.25 150.234V157.073Z" fill="#262626"/>
<path d="M545.737 134.163C552.234 134.961 556.679 135.759 556.679 141.23C556.679 145.675 552.804 148.638 544.598 148.638C536.847 148.638 532.402 146.017 532.174 139.976H517.813C518.269 151.146 528.299 158.782 544.598 158.782C560.782 158.782 570.812 151.374 570.812 139.976C570.812 125.957 559.985 121.967 548.017 120.6L544.028 120.144C537.189 119.346 533.086 117.408 533.086 112.735C533.086 109.43 536.049 106.125 544.37 106.125C551.778 106.125 555.198 109.43 555.426 113.761H569.673C568.989 105.099 560.896 96.0946 544.598 96.0946C528.755 96.0946 518.953 103.161 518.953 113.989C518.953 126.755 529.211 132.225 541.748 133.707L545.737 134.163Z" fill="#262626"/>
<path d="M172.113 81.0873C160.949 81.0873 149.895 83.2861 139.581 87.5582C129.268 91.8303 119.897 98.0919 112.003 105.986C104.109 113.879 97.8474 123.251 93.5754 133.564C89.3033 143.878 87.1045 154.932 87.1045 166.096L172.113 166.096L172.113 81.0873Z" fill="#262626"/>
<path d="M209.456 199.852H210.368L218.726 208.362H224.045L215.535 199.852H216.447C220.702 199.852 223.437 197.269 223.437 193.469C223.437 189.67 220.702 187.087 216.447 187.087H205.505V208.362H209.456V199.852ZM209.456 196.509V190.43H216.447C218.27 190.43 219.486 191.646 219.486 193.469C219.486 195.293 218.27 196.509 216.447 196.509H209.456Z" fill="#757575"/>
<path d="M230.154 196.813C230.397 195.658 231.339 194.989 233.315 194.989C235.746 194.989 236.597 196.053 236.597 197.876V198.18L231.491 198.636C227.844 198.971 225.504 200.612 225.504 203.651C225.504 207.147 228.148 208.818 231.339 208.818C234.227 208.818 235.686 207.754 236.597 206.539V208.362H240.366V197.876C240.366 196.357 239.971 195.111 239.181 194.199C237.996 192.801 235.898 192.102 233.315 192.102C229.151 192.102 226.75 193.956 226.264 196.813H230.154ZM231.947 205.931C230.367 205.931 229.273 205.171 229.273 203.651C229.273 202.284 230.245 201.493 231.643 201.372L236.597 200.916V201.524C236.597 204.411 234.531 205.931 231.947 205.931Z" fill="#757575"/>
<path d="M248.056 192.558H244.287V208.362H248.056V199.7C248.056 196.813 249.819 195.293 252.099 195.293C254.378 195.293 255.381 196.509 255.381 198.788V208.362H259.15V198.484C259.15 194.381 256.81 192.102 253.01 192.102C250.883 192.102 249.12 193.013 248.056 194.533V192.558Z" fill="#757575"/>
<path d="M274.474 200.004C274.474 202.891 272.711 204.867 270.127 204.867C267.696 204.867 265.933 202.891 265.933 200.004C265.933 197.117 267.696 195.141 270.127 195.141C272.711 195.141 274.474 197.117 274.474 200.004ZM269.519 207.906C272.103 207.906 273.714 206.539 274.322 205.779V206.539C274.322 209.73 272.863 211.402 270.279 211.402C268.608 211.402 267.574 210.946 267.088 209.578H263.228C263.836 212.618 266.48 214.289 270.279 214.289C274.686 214.289 278.09 211.554 278.09 206.539V192.558H274.322V194.229C273.714 193.469 272.103 192.102 269.519 192.102C265.112 192.102 262.164 195.597 262.164 200.004C262.164 204.411 265.112 207.906 269.519 207.906Z" fill="#757575"/>
<path d="M282.161 208.362H285.93V187.087H282.161V208.362Z" fill="#757575"/>
<path d="M300.787 203.803C300.422 204.776 299.358 205.931 297.292 205.931C294.556 205.931 293.128 203.803 293.006 201.828H305.164V201.22C305.164 199.882 305.012 198.545 304.647 197.39C303.644 194.229 301.212 192.102 297.2 192.102C292.337 192.102 289.085 195.749 289.085 200.46C289.085 205.171 292.246 208.818 297.292 208.818C301.395 208.818 303.978 206.539 304.86 203.803H300.787ZM297.2 194.989C299.723 194.989 301.152 196.813 301.243 198.94H293.006C293.249 196.813 294.769 194.989 297.2 194.989Z" fill="#757575"/>
<path d="M308.008 208.362H312.567V203.803H308.008V208.362Z" fill="#757575"/>
<path d="M316.384 208.362H320.153V192.558H316.384V208.362ZM316.384 190.43H320.153V187.087H316.384V190.43Z" fill="#757575"/>
<path d="M327.047 200.46C327.047 197.876 328.354 195.141 331.545 195.141C334.736 195.141 336.043 197.876 336.043 200.46C336.043 203.043 334.736 205.779 331.545 205.779C328.354 205.779 327.047 203.043 327.047 200.46ZM339.812 200.46C339.812 195.749 336.56 192.102 331.545 192.102C326.53 192.102 323.278 195.749 323.278 200.46C323.278 205.171 326.53 208.818 331.545 208.818C336.56 208.818 339.812 205.171 339.812 200.46Z" fill="#757575"/>
<path d="M368.888 197.724C368.888 191.038 364.937 187.087 358.554 187.087H350.5V208.362H358.554C364.937 208.362 368.888 204.411 368.888 197.724ZM354.451 190.43H358.25C362.809 190.43 364.937 193.013 364.937 197.724C364.937 202.436 362.809 205.019 358.25 205.019H354.451V190.43Z" fill="#757575"/>
<path d="M383.035 203.803C382.67 204.776 381.606 205.931 379.539 205.931C376.804 205.931 375.375 203.803 375.254 201.828H387.411V201.22C387.411 199.882 387.259 198.545 386.895 197.39C385.892 194.229 383.46 192.102 379.448 192.102C374.585 192.102 371.333 195.749 371.333 200.46C371.333 205.171 374.494 208.818 379.539 208.818C383.643 208.818 386.226 206.539 387.108 203.803H383.035ZM379.448 194.989C381.971 194.989 383.399 196.813 383.491 198.94H375.254C375.497 196.813 377.017 194.989 379.448 194.989Z" fill="#757575"/>
<path d="M396.912 202.253C398.645 202.466 399.83 202.679 399.83 204.138C399.83 205.323 398.797 206.113 396.608 206.113C394.541 206.113 393.356 205.414 393.295 203.803H389.466C389.587 206.782 392.262 208.818 396.608 208.818C400.924 208.818 403.599 206.843 403.599 203.803C403.599 200.065 400.711 199.001 397.52 198.636L396.456 198.515C394.633 198.302 393.538 197.785 393.538 196.539C393.538 195.658 394.329 194.776 396.547 194.776C398.523 194.776 399.435 195.658 399.496 196.813H403.295C403.113 194.503 400.955 192.102 396.608 192.102C392.383 192.102 389.77 193.986 389.77 196.873C389.77 200.278 392.505 201.736 395.848 202.132L396.912 202.253Z" fill="#757575"/>
<path d="M406.676 208.362H410.444V192.558H406.676V208.362ZM406.676 190.43H410.444V187.087H406.676V190.43Z" fill="#757575"/>
<path d="M425.909 200.004C425.909 202.891 424.146 204.867 421.563 204.867C419.131 204.867 417.369 202.891 417.369 200.004C417.369 197.117 419.131 195.141 421.563 195.141C424.146 195.141 425.909 197.117 425.909 200.004ZM420.955 207.906C423.538 207.906 425.149 206.539 425.757 205.779V206.539C425.757 209.73 424.298 211.402 421.715 211.402C420.043 211.402 419.01 210.946 418.523 209.578H414.663C415.271 212.618 417.916 214.289 421.715 214.289C426.122 214.289 429.526 211.554 429.526 206.539V192.558H425.757V194.229C425.149 193.469 423.538 192.102 420.955 192.102C416.548 192.102 413.6 195.597 413.6 200.004C413.6 204.411 416.548 207.906 420.955 207.906Z" fill="#757575"/>
<path d="M437.366 192.558H433.597V208.362H437.366V199.7C437.366 196.813 439.128 195.293 441.408 195.293C443.688 195.293 444.691 196.509 444.691 198.788V208.362H448.459V198.484C448.459 194.381 446.119 192.102 442.32 192.102C440.192 192.102 438.429 193.013 437.366 194.533V192.558Z" fill="#757575"/>
<path d="M458.477 202.436C458.629 206.083 461.82 208.818 467.443 208.818C473.066 208.818 476.257 206.083 476.257 202.284C476.257 197.846 473.036 196.539 468.811 195.901L466.987 195.627C464.434 195.232 462.732 194.594 462.732 192.558C462.732 191.19 463.796 189.67 467.443 189.67C470.482 189.67 471.698 191.007 471.789 192.558H475.801C475.589 189.761 473.218 186.631 467.443 186.631C461.82 186.631 458.933 189.366 458.933 192.861C458.933 196.904 461.79 198.727 466.227 199.396L468.051 199.67C470.604 200.065 472.397 200.399 472.397 202.588C472.397 204.411 470.634 205.779 467.443 205.779C464.252 205.779 462.58 204.563 462.489 202.436H458.477Z" fill="#757575"/>
<path d="M483.528 208.788C482.92 210.49 482.13 210.885 480.519 210.885H478.696V213.833H480.823C484.623 213.833 485.899 212.314 486.841 209.791L493.224 192.558H489.334L487.176 198.636C486.507 200.49 485.899 202.588 485.565 203.955H485.443C485.139 202.588 484.623 200.49 483.954 198.636L481.735 192.558H477.754L483.68 208.362L483.528 208.788Z" fill="#757575"/>
<path d="M501.659 202.253C503.391 202.466 504.576 202.679 504.576 204.138C504.576 205.323 503.543 206.113 501.355 206.113C499.288 206.113 498.103 205.414 498.042 203.803H494.212C494.334 206.782 497.008 208.818 501.355 208.818C505.671 208.818 508.345 206.843 508.345 203.803C508.345 200.065 505.458 199.001 502.267 198.636L501.203 198.515C499.379 198.302 498.285 197.785 498.285 196.539C498.285 195.658 499.075 194.776 501.294 194.776C503.27 194.776 504.181 195.658 504.242 196.813H508.041C507.859 194.503 505.701 192.102 501.355 192.102C497.13 192.102 494.516 193.986 494.516 196.873C494.516 200.278 497.251 201.736 500.595 202.132L501.659 202.253Z" fill="#757575"/>
<path d="M513.312 204.107C513.312 206.995 514.497 208.362 517.385 208.362H521.336V205.414H518.297C517.385 205.414 517.081 205.019 517.081 204.107V195.597H521.336V192.558H517.081V188.91H513.312V192.558H509.513V195.597H513.312V204.107Z" fill="#757575"/>
<path d="M534.827 203.803C534.462 204.776 533.398 205.931 531.331 205.931C528.596 205.931 527.167 203.803 527.046 201.828H539.203V201.22C539.203 199.882 539.051 198.545 538.687 197.39C537.684 194.229 535.252 192.102 531.24 192.102C526.377 192.102 523.125 195.749 523.125 200.46C523.125 205.171 526.286 208.818 531.331 208.818C535.434 208.818 538.018 206.539 538.899 203.803H534.827ZM531.24 194.989C533.763 194.989 535.191 196.813 535.282 198.94H527.046C527.289 196.813 528.809 194.989 531.24 194.989Z" fill="#757575"/>
<path d="M546.06 192.558H542.291V208.362H546.06V199.244C546.06 196.357 547.823 195.293 549.646 195.293C551.926 195.293 552.777 196.509 552.777 198.788V208.362H556.546V199.244C556.546 196.357 558.309 195.293 560.132 195.293C562.412 195.293 563.263 196.509 563.263 198.788V208.362H567.032V198.18C567.032 194.077 564.387 192.102 561.044 192.102C558.308 192.102 556.637 193.165 555.725 194.837C554.813 193.165 553.142 192.102 550.558 192.102C548.734 192.102 547.124 192.709 546.06 194.381V192.558Z" fill="#757575"/>
</g>
</svg>
