<svg width="32" height="32" viewBox="0 0 32 32" fill="none" xmlns="http://www.w3.org/2000/svg">
<path fill-rule="evenodd" clip-rule="evenodd" d="M20.2731 12.584C19.3485 12.584 18.4619 12.9439 17.8081 13.5846C17.1544 14.2252 16.7871 15.094 16.7871 16C16.7871 16.906 17.1544 17.7749 17.8081 18.4155C18.4619 19.0561 19.3485 19.416 20.2731 19.416C21.1976 19.416 22.0842 19.0561 22.738 18.4155C23.3917 17.7749 23.759 16.906 23.759 16C23.759 15.094 23.3917 14.2252 22.738 13.5846C22.0842 12.9439 21.1976 12.584 20.2731 12.584ZM16.6949 12.4937C17.6439 11.5638 18.931 11.0413 20.2731 11.0413C21.6151 11.0413 22.9022 11.5638 23.8512 12.4937C24.8002 13.4236 25.3333 14.6849 25.3333 16C25.3333 17.3151 24.8002 18.5764 23.8512 19.5063C22.9022 20.4363 21.6151 20.9587 20.2731 20.9587C18.931 20.9587 17.6439 20.4363 16.6949 19.5063C15.7459 18.5764 15.2128 17.3151 15.2128 16C15.2128 14.6849 15.7459 13.4236 16.6949 12.4937Z" fill="#262626"/>
<path fill-rule="evenodd" clip-rule="evenodd" d="M11.7269 20.9587C10.8023 20.9587 9.91567 21.3186 9.26193 21.9592C8.60819 22.5998 8.24092 23.4687 8.24092 24.3747C8.24092 25.2806 8.60819 26.1495 9.26193 26.7901C9.91567 27.4308 10.8023 27.7907 11.7269 27.7907C12.6514 27.7907 13.5381 27.4308 14.1918 26.7901C14.8455 26.1495 15.2128 25.2806 15.2128 24.3747V20.9587H11.7269ZM8.14874 20.8684C9.09772 19.9384 10.3848 19.416 11.7269 19.416H16.7871V24.3747C16.7871 25.6898 16.254 26.9511 15.305 27.881C14.356 28.8109 13.0689 29.3334 11.7269 29.3334C10.3848 29.3334 9.09772 28.8109 8.14874 27.881C7.19976 26.9511 6.66663 25.6898 6.66663 24.3747C6.66663 23.0596 7.19976 21.7983 8.14874 20.8684Z" fill="#262626"/>
<path fill-rule="evenodd" clip-rule="evenodd" d="M15.2128 2.66669H20.2731C21.6151 2.66669 22.9022 3.18912 23.8512 4.11905C24.8002 5.04898 25.3333 6.31024 25.3333 7.62536C25.3333 8.94049 24.8002 10.2017 23.8512 11.1317C22.9022 12.0616 21.6151 12.584 20.2731 12.584H15.2128V2.66669ZM16.7871 4.20939V11.0413H20.2731C21.1976 11.0413 22.0842 10.6814 22.738 10.0408C23.3917 9.40021 23.759 8.53134 23.759 7.62536C23.759 6.71939 23.3917 5.85052 22.738 5.2099C22.0842 4.56928 21.1976 4.20939 20.2731 4.20939H16.7871Z" fill="#262626"/>
<path fill-rule="evenodd" clip-rule="evenodd" d="M8.14874 4.11905C9.09772 3.18912 10.3848 2.66669 11.7269 2.66669H16.7871V12.584H11.7269C10.3848 12.584 9.09772 12.0616 8.14874 11.1317C7.19976 10.2017 6.66663 8.94049 6.66663 7.62536C6.66663 6.31024 7.19976 5.04898 8.14874 4.11905ZM11.7269 4.20939C10.8023 4.20939 9.91567 4.56928 9.26193 5.2099C8.60819 5.85052 8.24092 6.71939 8.24092 7.62536C8.24092 8.53134 8.60819 9.40021 9.26193 10.0408C9.91567 10.6814 10.8023 11.0413 11.7269 11.0413H15.2128V4.20939H11.7269Z" fill="#262626"/>
<path fill-rule="evenodd" clip-rule="evenodd" d="M8.14874 12.4937C9.09772 11.5638 10.3848 11.0413 11.7269 11.0413H16.7871V20.9587H11.7269C10.3848 20.9587 9.09772 20.4363 8.14874 19.5063C7.19976 18.5764 6.66663 17.3151 6.66663 16C6.66663 14.6849 7.19976 13.4236 8.14874 12.4937ZM11.7269 12.584C10.8023 12.584 9.91567 12.9439 9.26193 13.5846C8.60819 14.2252 8.24092 15.094 8.24092 16C8.24092 16.906 8.60819 17.7749 9.26193 18.4155C9.91567 19.0561 10.8023 19.416 11.7269 19.416H15.2128V12.584H11.7269Z" fill="#262626"/>
</svg>
