<svg width="32" height="32" viewBox="0 0 32 32" fill="none" xmlns="http://www.w3.org/2000/svg">
<path d="M16 2.66669C8.63774 2.66669 2.66663 8.48156 2.66663 15.6536C2.66663 21.3916 6.48663 26.2595 11.7855 27.977C12.4511 28.0972 12.6666 27.6946 12.6666 27.3526V24.9349C8.95774 25.7206 8.18551 23.4024 8.18551 23.4024C7.57885 21.9013 6.7044 21.502 6.7044 21.502C5.4944 20.6957 6.79663 20.713 6.79663 20.713C8.13551 20.804 8.83996 22.0518 8.83996 22.0518C10.0288 24.0366 11.9588 23.463 12.72 23.1308C12.8388 22.292 13.1844 21.7184 13.5666 21.3949C10.6055 21.0648 7.49218 19.9511 7.49218 14.9761C7.49218 13.5573 8.01329 12.3993 8.86551 11.4902C8.72774 11.1623 8.27107 9.84086 8.99551 8.053C8.99551 8.053 10.1155 7.70452 12.6633 9.38415C13.7266 9.09628 14.8666 8.95234 16 8.94693C17.1333 8.95234 18.2744 9.09628 19.34 9.38415C21.8855 7.70452 23.0033 8.053 23.0033 8.053C23.7288 9.84194 23.2722 11.1634 23.1344 11.4902C23.99 12.3993 24.5066 13.5584 24.5066 14.9761C24.5066 19.9641 21.3877 21.0626 18.4188 21.384C18.8966 21.7866 19.3333 22.5767 19.3333 23.7888V27.3526C19.3333 27.6978 19.5466 28.1037 20.2233 27.976C25.5177 26.2563 29.3333 21.3894 29.3333 15.6536C29.3333 8.48156 23.3633 2.66669 16 2.66669Z" fill="#262626"/>
</svg>
