<svg width="24" height="25" viewBox="0 0 24 25" fill="none" xmlns="http://www.w3.org/2000/svg">
<path fill-rule="evenodd" clip-rule="evenodd" d="M12.0011 3.5C9.55653 3.5 9.25001 3.51036 8.28995 3.55417C7.33189 3.59786 6.67756 3.75004 6.10503 3.97256C5.51313 4.20256 5.01116 4.51033 4.51073 5.01073C4.01033 5.51116 3.70256 6.01313 3.47256 6.60503C3.25004 7.17756 3.09786 7.83189 3.05417 8.78995C3.01036 9.75001 3 10.0565 3 12.5011C3 14.9456 3.01036 15.2522 3.05417 16.2122C3.09786 17.1703 3.25004 17.8246 3.47256 18.3971C3.70256 18.989 4.01033 19.491 4.51073 19.9914C5.01116 20.4918 5.51313 20.7996 6.10503 21.0296C6.67756 21.2521 7.33189 21.4043 8.28995 21.448C9.25001 21.4918 9.55653 21.5022 12.0011 21.5022C14.4456 21.5022 14.7522 21.4918 15.7122 21.448C16.6703 21.4043 17.3246 21.2521 17.8971 21.0296C18.489 20.7996 18.991 20.4918 19.4914 19.9914C19.9918 19.491 20.2996 18.989 20.5296 18.3971C20.7521 17.8246 20.9043 17.1703 20.948 16.2122C20.9918 15.2522 21.0022 14.9456 21.0022 12.5011C21.0022 10.0565 20.9918 9.75001 20.948 8.78995C20.9043 7.83189 20.7521 7.17756 20.5296 6.60503C20.2996 6.01313 19.9918 5.51116 19.4914 5.01073C18.991 4.51033 18.489 4.20256 17.8971 3.97256C17.3246 3.75004 16.6703 3.59786 15.7122 3.55417C14.7522 3.51036 14.4456 3.5 12.0011 3.5ZM12.0021 5.12219C14.4055 5.12219 14.6901 5.13137 15.6393 5.17468C16.5169 5.2147 16.9935 5.36133 17.3106 5.4846C17.7308 5.64789 18.0306 5.84293 18.3456 6.15793C18.6606 6.47289 18.8556 6.77273 19.0189 7.19288C19.1422 7.51005 19.2888 7.98665 19.3288 8.86425C19.3721 9.81338 19.3813 10.0981 19.3813 12.5015C19.3813 14.9048 19.3721 15.1895 19.3288 16.1387C19.2888 17.0163 19.1422 17.4929 19.0189 17.81C18.8556 18.2302 18.6606 18.53 18.3456 18.845C18.0306 19.16 17.7308 19.355 17.3106 19.5183C16.9935 19.6416 16.5169 19.7882 15.6393 19.8282C14.6903 19.8715 14.4056 19.8807 12.0021 19.8807C9.5985 19.8807 9.31388 19.8715 8.36486 19.8282C7.48726 19.7882 7.01066 19.6416 6.69349 19.5183C6.27334 19.355 5.9735 19.16 5.65854 18.845C5.34358 18.53 5.1485 18.2302 4.98521 17.81C4.86194 17.4929 4.71531 17.0163 4.67529 16.1387C4.63199 15.1895 4.6228 14.9048 4.6228 12.5015C4.6228 10.0981 4.63199 9.81338 4.67529 8.86425C4.71531 7.98665 4.86194 7.51005 4.98521 7.19288C5.1485 6.77273 5.34354 6.47289 5.65854 6.15793C5.9735 5.84293 6.27334 5.64789 6.69349 5.4846C7.01066 5.36133 7.48726 5.2147 8.36486 5.17468C9.31399 5.13137 9.59868 5.12219 12.0021 5.12219Z" fill="#262626"/>
<path fill-rule="evenodd" clip-rule="evenodd" d="M12.0044 15.4206C10.3904 15.4206 9.08203 14.1122 9.08203 12.4983C9.08203 10.8843 10.3904 9.57591 12.0044 9.57591C13.6183 9.57591 14.9267 10.8843 14.9267 12.4983C14.9267 14.1122 13.6183 15.4206 12.0044 15.4206ZM12.0043 7.99619C9.5179 7.99619 7.50232 10.0118 7.50232 12.4982C7.50232 14.9845 9.5179 17.0001 12.0043 17.0001C14.4907 17.0001 16.5062 14.9845 16.5062 12.4982C16.5062 10.0118 14.4907 7.99619 12.0043 7.99619Z" fill="#262626"/>
<path fill-rule="evenodd" clip-rule="evenodd" d="M18 7.50002C18 8.05231 17.5523 8.5 17 8.5C16.4477 8.5 16 8.05231 16 7.50002C16 6.94773 16.4477 6.5 17 6.5C17.5523 6.5 18 6.94773 18 7.50002Z" fill="#262626"/>
</svg>
