<svg width="24" height="25" viewBox="0 0 24 25" fill="none" xmlns="http://www.w3.org/2000/svg">
<path fill-rule="evenodd" clip-rule="evenodd" d="M5.91919 4.2998C4.66032 4.2998 3.83691 5.12553 3.83691 6.21138C3.83691 7.27356 4.6365 8.12434 5.87035 8.12434H5.89493C7.17818 8.12434 7.97625 7.27372 7.97625 6.21138C7.95207 5.12553 7.17818 4.2998 5.91919 4.2998ZM21 14.3548V20.7001H17.3213V14.7798C17.3213 13.2925 16.7893 12.2776 15.4577 12.2776C14.4413 12.2776 13.8364 12.9616 13.5703 13.6233C13.4732 13.8598 13.4482 14.189 13.4482 14.5202V20.7001H9.76839C9.76839 20.7001 9.81796 10.673 9.76839 9.63412H13.4479V11.2027C13.4444 11.2082 13.4403 11.214 13.4363 11.2197C13.4319 11.2261 13.4274 11.2324 13.4237 11.2384H13.4479V11.2027C13.9367 10.4497 14.8098 9.37415 16.7639 9.37415C19.185 9.37411 21 10.9558 21 14.3548ZM7.7341 20.7002H4.05564V9.63421H7.7341V20.7002Z" fill="#262626"/>
</svg>
