<svg width="100" height="100" viewBox="0 0 100 100" fill="none" xmlns="http://www.w3.org/2000/svg">
<path fill-rule="evenodd" clip-rule="evenodd" d="M13.009 4.70648L15.2179 39.8454H13.0003C13.0003 39.8454 13 40.8886 13 41.7313V50.015C13 56.9834 18.2649 62.9228 25.2797 63.8324L35.533 65.0295C37.6827 65.3082 39.2164 67.1996 39.0429 69.1993L36.8077 84.8086C36.2269 91.3676 41.1398 97.2161 47.7574 97.8457L49.4822 98L52.2303 97.847C58.8479 97.2161 63.7633 91.3688 63.1699 84.6729L60.9624 69.335C60.7738 67.1996 62.3075 65.3082 64.4246 65.0332L74.7457 63.8287C81.7253 62.9215 86.9902 56.9834 86.9902 50.015V41.7313C86.9902 41.3697 86.9925 40.9743 86.9947 40.6163C86.9964 40.3203 86.998 40.0499 86.998 39.8454H84.5421L86.9942 4.7239C87.042 4.0196 86.7931 3.32649 86.3078 2.81008C85.82 2.29367 85.1387 2 84.4246 2H74.7823C73.5906 2 72.5547 2.80883 72.2781 3.95613L70.5056 11.3016L66.6386 3.4335C66.2061 2.55623 65.3085 2 64.3229 2H15.5786C14.8671 2 14.1882 2.29118 13.703 2.80386C13.2152 3.31529 12.9638 4.00466 13.009 4.70648ZM20.3155 38.8766H79.4463L81.6664 7.0969H76.8139L73.842 19.4123C73.5881 20.4588 72.698 21.2366 71.6194 21.3535C70.5156 21.468 69.4973 20.9031 69.0221 19.935L62.7113 7.0969H44.7126L46.2954 25.2103C46.3435 25.7605 45.9364 26.2453 45.3862 26.2932L41.85 26.6009C41.2998 26.6488 40.8148 26.2416 40.7667 25.6914L39.1419 7.0969H35.3023L37.3124 30.1006C37.3604 30.6508 36.9534 31.1356 36.4032 31.1835L32.8669 31.4913C32.3167 31.5392 31.8317 31.132 31.7836 30.5818L29.7378 7.16857C29.7357 7.14454 29.7344 7.12064 29.734 7.0969H26.0532L28.4387 34.3975C28.4868 34.9477 28.0798 35.4325 27.5296 35.4804L23.9933 35.7882C23.4431 35.8361 22.9581 35.4289 22.91 34.8787L20.4887 7.16857C20.4866 7.14454 20.4853 7.12064 20.485 7.0969H18.3192L20.3155 38.8766ZM18.1492 44.2798V50.015C18.1492 54.4338 21.4882 58.2004 25.9159 58.7741L36.1691 59.9712C41.0946 60.6095 44.5894 64.9175 44.1569 69.7804L41.9218 85.3897C41.6024 89.0369 44.436 92.4091 48.2527 92.7725L49.7311 92.9156L51.735 92.7737C55.5542 92.4091 58.3903 89.0357 58.0559 85.2528L55.8484 69.9161C55.4008 64.9175 58.8957 60.6095 63.7884 59.9749L74.1096 58.7703C78.502 58.2004 81.841 54.4338 81.841 50.015V44.2798H18.1492ZM45.2387 85.4209C45.2387 88.0116 47.3683 90.1196 49.9857 90.1196C52.6031 90.1196 54.7327 88.0116 54.7327 85.4209C54.7327 82.8301 52.6031 80.7222 49.9857 80.7222C47.3683 80.7222 45.2387 82.8301 45.2387 85.4209Z" fill="#313131"/>
</svg>
