<svg width="91" height="96" viewBox="0 0 91 96" fill="none" xmlns="http://www.w3.org/2000/svg">
<g clip-path="url(#clip0_56:1966)">
<path d="M49 83C65.0163 83 78 70.0163 78 54C78 37.9837 65.0163 25 49 25C32.9837 25 20 37.9837 20 54C20 70.0163 32.9837 83 49 83Z" fill="#D44527" fill-opacity="0.3"/>
<path d="M51 16H46V23H51V16Z" fill="#D44527"/>
<path d="M55 12H42V16H55V12Z" fill="#D44527"/>
<path d="M75.2579 25.6678L70.2661 30.0813L73.2976 33.4737L78.2894 29.0602L75.2579 25.6678Z" fill="#D44527"/>
<path d="M75.4188 20.2381L72.0898 23.3362L80.5035 32.2821L83.8325 29.184L75.4188 20.2381Z" fill="#D44527"/>
<path d="M49 31V56" stroke="#D44527" stroke-width="3"/>
<path d="M49 59C46.2386 59 44 56.7614 44 54C44 51.2386 46.2386 49 49 49C51.7614 49 54 51.2386 54 54C54 56.7614 51.7614 59 49 59Z" fill="#D44527"/>
</g>
<defs>
<clipPath id="clip0_56:1966">
<rect width="91" height="96" fill="white"/>
</clipPath>
</defs>
</svg>
