<svg width="96" height="96" viewBox="0 0 96 96" fill="none" xmlns="http://www.w3.org/2000/svg">
<circle cx="49.4081" cy="26.8846" r="12.8846" fill="#D44527"/>
<path d="M48.3769 43.8926C32.1525 43.8926 19 57.2758 19 73.7849H77.7539C77.7539 57.2758 64.6014 43.8926 48.3769 43.8926Z" fill="#D44527" fill-opacity="0.3"/>
<path d="M57.6535 64.847C57.2021 63.8234 56.4762 62.9558 55.5622 62.3474C54.6482 61.7391 53.5847 61.4156 52.4983 61.4155C50.9951 61.4155 49.5534 62.034 48.4905 63.135C47.4275 64.2359 46.8304 65.7291 46.8304 67.286C46.8304 68.6568 47.238 69.7572 48.0453 70.9156C48.8527 72.074 57.6535 81.0002 57.6535 81.0002C57.6535 81.0002 66.4543 72.0757 67.2616 70.9156C68.069 69.7554 68.4766 68.6568 68.4766 67.286C68.4766 65.7291 67.8794 64.2359 66.8165 63.135C65.7535 62.034 64.3119 61.4155 62.8087 61.4155C61.7222 61.4156 60.6587 61.7391 59.7447 62.3474C58.8308 62.9558 58.1049 63.8234 57.6535 64.847Z" fill="#D44527"/>
</svg>
