<svg width="96" height="96" viewBox="0 0 96 96" fill="none" xmlns="http://www.w3.org/2000/svg">
<path fill-rule="evenodd" clip-rule="evenodd" d="M13.4522 26.9562C11.5045 28.9175 11.5177 32.0871 13.4816 34.0321L18.3999 38.903C20.362 40.8461 23.5278 40.8308 25.4709 38.8687L29.9336 34.3625L70.3891 74.8181C72.3418 76.7707 75.5076 76.7707 77.4602 74.8181L78.1342 74.1441C80.0868 72.1914 80.0868 69.0256 78.1342 67.073L37.6412 26.5799L41.673 22.5088C43.6161 20.5468 43.6008 17.381 41.6387 15.4379L40.6386 14.4474C39.7023 13.5202 38.4379 13 37.1202 13H29.3598C28.0202 13 26.7366 13.5375 25.7968 14.4922L21.9526 18.3968L13.4522 26.9562Z" fill="#D44527" fill-opacity="0.3"/>
<path fill-rule="evenodd" clip-rule="evenodd" d="M71.5842 14.2678C72.267 14.6466 72.9724 15.3346 73.5276 15.9562C74.1761 16.6824 74.0811 17.7709 73.3927 18.4594L68.0561 23.7959C67.2529 24.5991 67.2791 25.9092 68.1138 26.6797L71.7171 30.0059C72.4876 30.7171 73.6766 30.7125 74.4416 29.9953L79.8926 24.885C80.5861 24.2348 81.6451 24.16 82.3558 24.7912C82.9869 25.3517 83.6956 26.0721 84.0842 26.7678C85.9157 30.047 84.4026 32.9814 82.5842 36.2678C81.1136 38.9257 79.8186 40.445 77.0842 41.7678C72.9881 43.7493 65.5835 40.9599 65.1083 40.7771L42.6255 63.6281C42.9695 64.5617 45.3045 71.2033 43.5842 75.0178C42.2093 78.0666 40.4337 79.4615 37.4735 81.0178L37.2784 81.1204C34.0733 82.8068 31.2669 84.2834 28.0842 82.5178C27.4015 82.139 26.696 81.4511 26.1409 80.8294C25.4923 80.1032 25.5873 79.0147 26.2758 78.3262L31.6123 72.9897C32.4155 72.1865 32.3893 70.8764 31.5547 70.1059L27.9513 66.7798C27.1809 66.0685 25.9919 66.0731 25.2269 66.7903L19.7759 71.9007C19.0824 72.5508 18.0234 72.6256 17.3126 71.9944C16.6816 71.434 15.9728 70.7135 15.5843 70.0178C13.7528 66.7387 15.2659 63.8042 17.0843 60.5178C18.5549 57.86 19.8498 56.3406 22.5843 55.0178C26.8175 52.97 34.5842 56.0178 34.5842 56.0178L34.6714 56.0995L57.1107 33.2927L57.0842 33.2678C57.0842 33.2678 54.231 25.8772 56.0842 21.7678C57.4591 18.7191 59.2347 17.3241 62.195 15.7678L62.3901 15.6652C65.5951 13.9788 68.4016 12.5022 71.5842 14.2678Z" fill="#D44527"/>
</svg>
