<svg width="24" height="25" viewBox="0 0 24 25" fill="none" xmlns="http://www.w3.org/2000/svg">
<path d="M21.7777 6.39305C21.058 6.7143 20.2857 6.93216 19.4743 7.02942C20.3028 6.52968 20.937 5.73702 21.2376 4.7954C20.4604 5.25819 19.6026 5.59424 18.6885 5.77641C17.9565 4.9899 16.9154 4.5 15.7606 4.5C13.5451 4.5 11.7488 6.30937 11.7488 8.53969C11.7488 8.85601 11.7842 9.16496 11.8527 9.46039C8.51907 9.29174 5.56308 7.68301 3.58467 5.2385C3.23884 5.83425 3.0421 6.52842 3.0421 7.26943C3.0421 8.6714 3.75086 9.90841 4.82623 10.6321C4.16878 10.61 3.55045 10.4278 3.00912 10.125V10.1755C3.00912 12.1326 4.39242 13.7659 6.22662 14.1376C5.89057 14.2287 5.5362 14.2792 5.1696 14.2792C4.91055 14.2792 4.66004 14.2534 4.41441 14.2041C4.92519 15.8104 6.40627 16.9785 8.16106 17.0105C6.78875 18.0937 5.0584 18.7374 3.17899 18.7374C2.85517 18.7374 2.53621 18.7177 2.22217 18.682C3.99773 19.8304 6.10568 20.5 8.37125 20.5C15.7509 20.5 19.7847 14.3432 19.7847 9.00374L19.7712 8.48063C20.5594 7.9144 21.2413 7.20297 21.7777 6.39305Z" fill="#262626"/>
</svg>
