<svg width="24" height="25" viewBox="0 0 24 25" fill="none" xmlns="http://www.w3.org/2000/svg">
<path fill-rule="evenodd" clip-rule="evenodd" d="M20.7393 5.6477C21.6929 5.8992 22.4437 6.64036 22.6986 7.58118C23.1617 9.28692 23.1617 12.8453 23.1617 12.8453C23.1617 12.8453 23.1617 16.4039 22.6986 18.1094C22.4437 19.0503 21.6929 19.7916 20.7393 20.0429C19.011 20.5 12.0808 20.5 12.0808 20.5C12.0808 20.5 5.15068 20.5 3.4224 20.0429C2.46887 19.7916 1.71802 19.0503 1.46317 18.1094C1 16.4039 1 12.8453 1 12.8453C1 12.8453 1 9.28692 1.46317 7.58118C1.71802 6.64036 2.46887 5.8992 3.4224 5.6477C5.15068 5.1908 12.0808 5.1908 12.0808 5.1908C12.0808 5.1908 19.011 5.1908 20.7393 5.6477ZM15.6213 12.8456L9.86383 16.126V9.56478L15.6213 12.8456Z" fill="#262626"/>
</svg>
