<svg width="100" height="24" viewBox="0 0 100 24" fill="none" xmlns="http://www.w3.org/2000/svg">
<path d="M22.3532 10.3668L21.3532 10.3668L22.3532 10.3668ZM21.3532 10.3668L21.3532 16L23.3532 16L23.3532 10.3668L21.3532 10.3668ZM18.3532 19H5.99999V21H18.3532V19ZM3 16L3.00004 10.3662L1.00004 10.3662L1 16L3 16ZM9.67801 5.90565C10.3549 5.33974 11.2246 5 12.1762 5V3C10.7384 3 9.41848 3.51575 8.3952 4.37124L9.67801 5.90565ZM12.1762 5C13.1277 5 13.9973 5.33967 14.6741 5.90547L15.9568 4.37096C14.9336 3.51564 13.6138 3 12.1762 3V5ZM5.45088 7.91542C7.22993 7.91542 8.66942 6.74885 9.67801 5.90565L8.3952 4.37124C7.30919 5.27917 6.40199 5.91542 5.45088 5.91542V7.91542ZM3.00004 10.3662C3.00005 9.01268 4.09732 7.91542 5.45088 7.91542V5.91542C2.99276 5.91542 1.00006 7.9081 1.00004 10.3662L3.00004 10.3662ZM5.99999 19C4.34313 19 2.99999 17.6568 3 16L1 16C0.99998 18.7614 3.23855 21 5.99999 21V19ZM21.3532 16C21.3532 17.6569 20.01 19 18.3532 19V21C21.1146 21 23.3532 18.7615 23.3532 16L21.3532 16ZM18.9018 7.91542C20.2557 7.91542 21.3532 9.01295 21.3532 10.3668L23.3532 10.3668C23.3532 7.90839 21.3603 5.91542 18.9018 5.91542V7.91542ZM18.9018 5.91542C17.9505 5.91542 17.0431 5.27901 15.9568 4.37096L14.6741 5.90547C15.6829 6.74868 17.1226 7.91542 18.9018 7.91542V5.91542Z" fill="black"/>
<path d="M10.2053 8.36068L14.1215 8.34994L16.8982 11.1115L16.9089 15.0276L14.1474 17.8043L10.2312 17.8151L7.45454 15.0535L7.44381 11.1374L10.2053 8.36068Z" fill="#FF0000"/>
<circle cx="6" cy="10" r="1" fill="black"/>
<path d="M30.081 11.865H32.876C33.461 11.865 33.981 11.54 33.981 10.76C33.981 9.97999 33.461 9.65499 32.876 9.65499H30.081V11.865ZM32.876 13.62H30.081V17H28.001V7.89999H32.876C34.826 7.89999 36.061 9.06999 36.061 10.76C36.061 12.45 34.826 13.62 32.876 13.62Z" fill="black"/>
<path d="M39.1 7.89999V10.955C39.555 10.37 40.257 10.045 41.141 10.045C42.857 10.045 43.923 11.085 43.923 12.905V17H41.947V13.035C41.947 12.19 41.57 11.67 40.686 11.67C39.737 11.67 39.1 12.32 39.1 13.425V17H37.124V7.89999H39.1Z" fill="black"/>
<path d="M52.2778 13.62C52.2778 15.635 50.8998 17.195 48.6638 17.195C46.4278 17.195 45.0498 15.635 45.0498 13.62C45.0498 11.605 46.4278 10.045 48.6638 10.045C50.8998 10.045 52.2778 11.605 52.2778 13.62ZM50.3018 13.62C50.3018 12.71 49.8728 11.605 48.6638 11.605C47.4548 11.605 47.0258 12.71 47.0258 13.62C47.0258 14.53 47.4548 15.635 48.6638 15.635C49.8728 15.635 50.3018 14.53 50.3018 13.62Z" fill="black"/>
<path d="M54.3236 15.05V11.8H52.6986V10.24H54.3236V8.67999H56.2996V10.24H58.1846V11.8H56.2996V15.05C56.2996 15.375 56.4296 15.505 56.7546 15.505H58.1846V17H56.2346C54.9346 17 54.3236 16.415 54.3236 15.05Z" fill="black"/>
<path d="M66.0903 13.62C66.0903 15.635 64.7123 17.195 62.4763 17.195C60.2403 17.195 58.8623 15.635 58.8623 13.62C58.8623 11.605 60.2403 10.045 62.4763 10.045C64.7123 10.045 66.0903 11.605 66.0903 13.62ZM64.1143 13.62C64.1143 12.71 63.6853 11.605 62.4763 11.605C61.2673 11.605 60.8383 12.71 60.8383 13.62C60.8383 14.53 61.2673 15.635 62.4763 15.635C63.6853 15.635 64.1143 14.53 64.1143 13.62Z" fill="black"/>
<path d="M71.5241 13.464L70.9391 13.386C69.0411 13.139 67.5981 12.398 67.5981 10.474C67.5981 8.87496 68.8981 7.70496 71.3031 7.70496C73.8381 7.70496 74.9821 9.04396 75.0731 10.37H72.9801C72.9411 9.70696 72.5121 9.23896 71.3031 9.23896C69.9771 9.23896 69.6131 9.75896 69.6131 10.266C69.6131 11.033 70.2761 11.228 71.3161 11.384L71.9011 11.475C73.7081 11.761 75.2681 12.229 75.2681 14.309C75.2681 15.999 73.8121 17.195 71.3681 17.195C68.8981 17.195 67.4681 16.025 67.4031 14.335H69.4961C69.5351 15.245 70.1981 15.674 71.3681 15.674C72.6031 15.674 73.2271 15.18 73.2271 14.504C73.2271 13.711 72.5121 13.594 71.5241 13.464Z" fill="#D44527"/>
<path d="M77.4644 15.05V11.8H75.8394V10.24H77.4644V8.67996H79.4404V10.24H81.3254V11.8H79.4404V15.05C79.4404 15.375 79.5704 15.505 79.8954 15.505H81.3254V17H79.3754C78.0754 17 77.4644 16.415 77.4644 15.05Z" fill="#D44527"/>
<path d="M89.231 13.62C89.231 15.635 87.853 17.195 85.617 17.195C83.381 17.195 82.003 15.635 82.003 13.62C82.003 11.605 83.381 10.045 85.617 10.045C87.853 10.045 89.231 11.605 89.231 13.62ZM87.255 13.62C87.255 12.71 86.826 11.605 85.617 11.605C84.408 11.605 83.979 12.71 83.979 13.62C83.979 14.53 84.408 15.635 85.617 15.635C86.826 15.635 87.255 14.53 87.255 13.62Z" fill="#D44527"/>
<path d="M92.4175 10.24V11.02C92.7425 10.5 93.4575 10.045 94.4975 10.045C96.5385 10.045 97.6565 11.67 97.6565 13.62C97.6565 15.57 96.5385 17.195 94.4975 17.195C93.4575 17.195 92.7425 16.74 92.4175 16.22V19.34H90.4415V10.24H92.4175ZM92.3525 13.62C92.3525 15.05 93.2235 15.635 94.0165 15.635C94.9265 15.635 95.6805 15.05 95.6805 13.62C95.6805 12.19 94.9265 11.605 94.0165 11.605C93.2235 11.605 92.3525 12.19 92.3525 13.62Z" fill="#D44527"/>
</svg>
