<svg width="143" height="32" viewBox="0 0 143 32" fill="none" xmlns="http://www.w3.org/2000/svg">
<path d="M26.6491 6.35688C25.1346 4.83721 23.1187 4 20.9749 4C19.1464 4 17.4116 4.6084 16 5.73129C14.5884 4.60972 12.8522 4 11.0251 4C8.88127 4 6.86675 4.83721 5.35092 6.35688C3.83509 7.87656 3 9.89618 3 12.0454C3 14.1946 3.83509 16.2143 5.35092 17.7339L15.3008 27.709C15.4868 27.8955 15.7375 28 16 28C16.2625 28 16.5145 27.8955 16.6992 27.709L26.6491 17.7339C28.1649 16.2143 29 14.1946 29 12.0454C29 9.89618 28.1649 7.87656 26.6491 6.35688ZM19.2982 16.3439H16.9894V18.6584C16.9894 19.206 16.5462 19.6504 16 19.6504C15.4538 19.6504 15.0106 19.206 15.0106 18.6584V16.3439H12.7018C12.1557 16.3439 11.7124 15.8995 11.7124 15.3519C11.7124 14.8044 12.1557 14.36 12.7018 14.36H15.0106V12.0454C15.0106 11.4979 15.4538 11.0535 16 11.0535C16.5462 11.0535 16.9894 11.4979 16.9894 12.0454V14.36H19.2982C19.8443 14.36 20.2876 14.8044 20.2876 15.3519C20.2876 15.8995 19.8443 16.3439 19.2982 16.3439Z" fill="white"/>
<path d="M59.4829 7.05525C59.6479 6.43647 59.947 6.00332 60.3801 5.7558C60.8133 5.50829 61.2567 5.42578 61.7105 5.50829C62.1643 5.59079 62.5459 5.82799 62.8552 6.21989C63.1646 6.59116 63.2781 7.08619 63.1956 7.70497C63.0718 8.48877 62.9068 9.27256 62.7006 10.0564C62.5149 10.8401 62.3087 11.6136 62.0818 12.3768C61.7724 13.3669 61.4217 14.3363 61.0298 15.2851C60.6586 16.2339 60.3079 17.2033 59.9779 18.1934C59.6479 19.1215 59.3076 20.0497 58.9569 20.9779C58.6269 21.8855 58.2762 22.8033 57.905 23.7315C57.7812 24.0409 57.6471 24.3709 57.5028 24.7215C57.379 25.0516 57.214 25.3403 57.0077 25.5878C56.6983 26.0004 56.2755 26.2479 55.7392 26.3304C55.2029 26.4129 54.7285 26.2788 54.316 25.9282C53.986 25.6394 53.7488 25.2888 53.6044 24.8762C53.46 24.4431 53.3053 24.0306 53.1403 23.6387C52.9547 23.1436 52.7381 22.5971 52.4906 21.9989C52.2637 21.4007 52.0678 20.8645 51.9028 20.3901C51.5521 19.4619 51.2118 18.5337 50.8818 17.6055C50.5724 16.6567 50.2424 15.7182 49.8917 14.7901C49.6029 15.6564 49.2936 16.502 48.9635 17.3271C48.6541 18.1315 48.3551 18.9565 48.0663 19.8022C47.8394 20.3591 47.6228 20.916 47.4166 21.4729C47.2103 22.0298 46.9937 22.5764 46.7669 23.1127C46.6225 23.484 46.4987 23.7727 46.3956 23.979C46.3131 24.1646 46.1687 24.4637 45.9624 24.8762C45.818 25.2063 45.6015 25.495 45.3127 25.7425C45.0239 26.0107 44.7145 26.186 44.3845 26.2685C44.0751 26.3716 43.7554 26.3716 43.4254 26.2685C43.0954 26.1654 42.8066 25.9179 42.5591 25.526C42.2085 24.9897 41.961 24.3606 41.8166 23.6387C41.6928 22.9168 41.5381 22.2567 41.3525 21.6586C41.2287 21.2873 41.105 20.916 40.9812 20.5448C40.8781 20.1735 40.7646 19.8125 40.6409 19.4619C40.5171 19.0906 40.3831 18.7193 40.2387 18.3481C40.1149 17.9768 39.9912 17.6158 39.8674 17.2652C39.4549 16.0689 39.0217 14.8932 38.568 13.7381C38.1348 12.5624 37.6913 11.3867 37.2376 10.2111C37.1551 9.96354 37.0416 9.71602 36.8972 9.46851C36.7529 9.20037 36.6188 8.93223 36.495 8.66409C36.3713 8.37532 36.2681 8.09687 36.1856 7.82873C36.1238 7.53996 36.1031 7.26151 36.1238 6.99337C36.165 6.64273 36.2888 6.34365 36.495 6.09613C36.7219 5.84862 36.9797 5.6733 37.2685 5.57017C37.5573 5.44641 37.8667 5.40516 38.1967 5.44641C38.5267 5.46704 38.8258 5.59079 39.0939 5.81768C39.6508 6.29208 40.0634 6.92118 40.3315 7.70497C40.6203 8.48877 40.8884 9.21068 41.1359 9.87072C41.4247 10.5926 41.6928 11.3249 41.9403 12.0674C42.1878 12.7893 42.456 13.5112 42.7448 14.2331C43.0335 15.0169 43.312 15.7904 43.5801 16.5536C43.8482 17.3168 44.1061 18.0902 44.3536 18.874C44.4361 18.6884 44.5083 18.5028 44.5702 18.3171C44.632 18.1109 44.7042 17.9046 44.7867 17.6983C45.1993 16.667 45.5808 15.646 45.9315 14.6354C46.3028 13.6247 46.6431 12.5934 46.9525 11.5414C47.0556 11.2527 47.1381 10.9639 47.2 10.6751C47.2825 10.3657 47.365 10.0667 47.4475 9.7779C47.5919 9.28287 47.6847 8.90129 47.726 8.63315C47.7672 8.34438 47.891 8.03499 48.0972 7.70497C48.2829 7.41621 48.5304 7.20995 48.8398 7.08619C49.1492 6.94181 49.4689 6.87993 49.7989 6.90055C50.1289 6.90055 50.428 6.98306 50.6961 7.14807C50.9849 7.31308 51.2015 7.56059 51.3459 7.89061C51.4077 8.01436 51.4902 8.21031 51.5934 8.47845C51.6965 8.72597 51.7996 9.00442 51.9028 9.31381C52.0059 9.60258 52.109 9.88103 52.2122 10.1492C52.3153 10.3967 52.3875 10.5823 52.4287 10.7061C52.6762 11.3661 52.9134 12.0158 53.1403 12.6552C53.3672 13.2947 53.5941 13.9444 53.821 14.6044C54.1098 15.4501 54.3985 16.2855 54.6873 17.1105C54.9967 17.9149 55.3061 18.7193 55.6155 19.5238C55.8011 18.9875 55.9764 18.4409 56.1414 17.884C56.3064 17.3271 56.4921 16.7805 56.6983 16.2442C57.2552 14.7591 57.7812 13.274 58.2762 11.789C58.7919 10.3039 59.1838 8.78785 59.4519 7.24089L59.4829 7.05525ZM74.9754 20.8541C75.4704 20.7304 75.9036 20.7304 76.2748 20.8541C76.6667 20.9573 76.9658 21.1429 77.1721 21.411C77.3783 21.6792 77.4712 22.0092 77.4505 22.4011C77.4299 22.793 77.2546 23.2055 76.9246 23.6387C76.6564 23.9893 76.2851 24.2884 75.8107 24.5359C75.3363 24.7834 74.8929 24.9794 74.4804 25.1238C73.4697 25.495 72.5106 25.7529 71.603 25.8972C70.6955 26.0416 69.8395 26.0416 69.0351 25.8972C68.2513 25.7529 67.5087 25.4538 66.8074 25C66.1268 24.5462 65.4874 23.9068 64.8892 23.0818C64.4767 22.5249 64.1673 21.8958 63.961 21.1945C63.7754 20.4726 63.6723 19.7403 63.6516 18.9978C63.631 18.2552 63.6929 17.523 63.8373 16.8011C63.9816 16.0792 64.1879 15.4295 64.4561 14.8519C64.8067 14.13 65.3636 13.47 66.1268 12.8718C66.8899 12.2737 67.7356 11.7993 68.6638 11.4486C69.592 11.098 70.5408 10.902 71.5102 10.8608C72.4796 10.7989 73.3356 10.9433 74.0782 11.2939C74.6969 11.5827 75.2229 12.0055 75.6561 12.5624C76.1098 13.0987 76.4192 13.6866 76.5842 14.326C76.7492 14.9654 76.7595 15.6151 76.6152 16.2751C76.4914 16.9145 76.1614 17.5024 75.6251 18.0387C75.1095 18.5543 74.5422 18.9772 73.9235 19.3072C73.3047 19.6166 72.6653 19.895 72.0052 20.1425C71.3452 20.3694 70.6645 20.5654 69.9632 20.7304C69.2826 20.8954 68.6225 21.081 67.9831 21.2873C68.4163 21.7823 68.9113 22.102 69.4682 22.2464C70.0251 22.3702 70.6026 22.3908 71.2008 22.3083C71.8196 22.2258 72.4384 22.0608 73.0572 21.8133C73.6759 21.5451 74.2535 21.2564 74.7898 20.947L74.9754 20.8541ZM68.7257 15.5326C68.2513 15.8007 67.9006 16.1411 67.6737 16.5536C67.4468 16.9455 67.2818 17.5024 67.1787 18.2243C67.715 18.0593 68.3131 17.884 68.9732 17.6983C69.6538 17.5127 70.2933 17.3168 70.8914 17.1105C71.4896 16.9042 71.9949 16.6773 72.4074 16.4298C72.82 16.1823 73.0262 15.9142 73.0262 15.6254C73.0262 15.4604 72.9953 15.3057 72.9334 15.1613C72.8921 14.9963 72.789 14.8829 72.624 14.821C72.0465 14.6147 71.4483 14.5735 70.8295 14.6972C70.2107 14.821 69.6951 14.9963 69.2826 15.2232L68.7257 15.5326ZM90.6556 19.5547C90.9856 19.2247 91.3569 19.039 91.7694 18.9978C92.2025 18.9359 92.5944 18.9875 92.9451 19.1525C93.2957 19.3175 93.5639 19.5856 93.7495 19.9569C93.9557 20.3076 94.0073 20.7304 93.9042 21.2254C93.7804 21.7204 93.5432 22.1845 93.1926 22.6177C92.8419 23.0302 92.4913 23.4118 92.1406 23.7624C91.3362 24.6081 90.439 25.2269 89.4489 25.6188C88.4795 26.0313 87.4894 26.2273 86.4788 26.2066C85.4887 26.186 84.509 25.9488 83.5395 25.495C82.5907 25.0413 81.7348 24.3606 80.9716 23.453C80.5178 22.9168 80.1362 22.3495 79.8268 21.7514C79.5174 21.1532 79.2802 20.5241 79.1152 19.8641C78.8677 18.8947 78.7543 17.884 78.7749 16.832C78.7955 15.7801 78.9605 14.7591 79.2699 13.7691C79.5793 12.779 80.0125 11.8508 80.5694 10.9845C81.1469 10.0976 81.8482 9.34475 82.6732 8.72597C83.2714 8.27219 83.8696 7.8803 84.4677 7.55028C85.0865 7.22026 85.7362 6.91087 86.4169 6.6221C86.8088 6.45709 87.211 6.3024 87.6235 6.15801C88.036 5.993 88.4589 5.86925 88.892 5.78674C89.3252 5.70424 89.7583 5.6733 90.1915 5.69392C90.6246 5.71455 91.0475 5.80737 91.46 5.97238C91.7487 6.09613 92.0375 6.27146 92.3263 6.49834C92.615 6.70461 92.8832 6.95212 93.1307 7.24089C93.3782 7.50902 93.5948 7.79779 93.7804 8.10718C93.9661 8.41658 94.1001 8.71565 94.1826 9.00442C94.2445 9.27256 94.2548 9.55101 94.2136 9.83978C94.1929 10.1079 94.1104 10.3554 93.9661 10.5823C93.8423 10.8092 93.667 11.0052 93.4401 11.1702C93.2132 11.3145 92.9554 11.4074 92.6666 11.4486C92.1922 11.5105 91.8209 11.4589 91.5528 11.2939C91.3053 11.1289 91.099 10.9227 90.934 10.6751C90.7896 10.4276 90.6452 10.1904 90.5009 9.96354C90.3565 9.71602 90.1502 9.5407 89.8821 9.43757C89.7171 9.43757 89.5933 9.44788 89.5108 9.46851C88.8095 9.65414 88.0979 9.91197 87.376 10.242C86.6747 10.5514 86.0147 10.933 85.3959 11.3867C84.7977 11.8405 84.2718 12.3665 83.818 12.9646C83.3642 13.5628 83.0342 14.2331 82.8279 14.9757C82.5804 15.8626 82.4876 16.7599 82.5495 17.6674C82.6114 18.575 82.8589 19.4309 83.292 20.2354C83.5395 20.7098 83.8696 21.1223 84.2821 21.4729C84.6946 21.8236 85.1484 22.0917 85.6434 22.2773C86.1384 22.4424 86.6438 22.5042 87.1594 22.463C87.6751 22.4011 88.1701 22.2155 88.6445 21.9061C89.057 21.6173 89.4283 21.2667 89.7583 20.8541C90.0883 20.421 90.3874 19.9878 90.6556 19.5547ZM109.64 23.6387C109.805 24.2368 109.774 24.7319 109.547 25.1238C109.32 25.5157 109 25.7735 108.588 25.8972C108.196 26.0416 107.763 26.0313 107.289 25.8663C106.814 25.7013 106.402 25.3713 106.051 24.8762C105.473 25.3094 104.906 25.6085 104.349 25.7735C103.813 25.9591 103.194 26.0622 102.493 26.0829C101.441 26.1241 100.503 26.0004 99.6775 25.7116C98.8524 25.4435 98.1511 25.0309 97.5736 24.474C97.0167 23.9171 96.6042 23.2262 96.336 22.4011C96.0679 21.5554 95.9751 20.586 96.0576 19.4928C96.0988 19.039 96.171 18.5956 96.2741 18.1624C96.3979 17.7293 96.532 17.3064 96.6764 16.8939C96.8414 16.4401 97.0683 15.9554 97.357 15.4398C97.6664 14.9241 97.9758 14.4807 98.2852 14.1094C99.399 12.7481 100.791 11.7683 102.462 11.1702C102.751 11.067 103.143 10.9742 103.638 10.8917C104.133 10.8092 104.628 10.7783 105.123 10.7989C105.638 10.7989 106.123 10.8608 106.577 10.9845C107.051 11.1083 107.402 11.3249 107.629 11.6343C107.814 11.8818 107.949 12.0983 108.031 12.284C108.114 12.4696 108.155 12.6656 108.155 12.8718C108.175 13.0781 108.175 13.305 108.155 13.5525C108.155 13.7794 108.155 14.0681 108.155 14.4188C108.155 14.9963 108.144 15.5635 108.124 16.1204C108.124 16.6567 108.134 17.2033 108.155 17.7602C108.155 17.9459 108.155 18.1934 108.155 18.5028C108.155 18.7915 108.165 19.1009 108.186 19.4309C108.206 19.761 108.227 20.0807 108.248 20.3901C108.289 20.6788 108.34 20.916 108.402 21.1017L109.64 23.6387ZM103.081 22.2464C103.308 22.102 103.565 21.9473 103.854 21.7823C104.143 21.5967 104.401 21.3904 104.628 21.1635C104.442 20.0704 104.329 18.9772 104.287 17.884C104.267 16.7908 104.277 15.6873 104.318 14.5735C103.39 14.7385 102.555 15.1407 101.812 15.7801C101.07 16.4195 100.554 17.1724 100.265 18.0387C100.142 18.3893 100.038 18.7503 99.9559 19.1215C99.8734 19.4928 99.8425 19.8538 99.8631 20.2044C99.8837 20.6788 100.007 21.081 100.234 21.411C100.461 21.7204 100.729 21.9576 101.039 22.1227C101.369 22.2877 101.709 22.3805 102.06 22.4011C102.431 22.4217 102.771 22.3702 103.081 22.2464ZM112.22 15.5326C112.22 15.6151 112.23 15.5945 112.251 15.4707C112.271 15.3263 112.261 15.0788 112.22 14.7282C111.89 14.5425 111.632 14.3053 111.446 14.0166C111.261 13.7278 111.147 13.4184 111.106 13.0884C111.085 12.7584 111.147 12.449 111.292 12.1602C111.457 11.8508 111.714 11.593 112.065 11.3867C112.54 11.1186 113.055 11.067 113.612 11.232C114.19 11.3971 114.685 11.6446 115.097 11.9746C115.613 11.5827 116.149 11.2527 116.706 10.9845C117.263 10.7164 117.83 10.5411 118.408 10.4586C118.985 10.3554 119.573 10.3657 120.171 10.4895C120.769 10.6133 121.357 10.8711 121.935 11.263C122.223 11.4486 122.492 11.6858 122.739 11.9746C122.987 12.2427 123.141 12.5521 123.203 12.9028C123.306 13.4184 123.265 13.8722 123.079 14.2641C122.894 14.6354 122.636 14.9138 122.306 15.0994C121.976 15.2645 121.605 15.316 121.192 15.2541C120.78 15.1716 120.388 14.9448 120.016 14.5735C119.893 14.491 119.8 14.4291 119.738 14.3878C119.697 14.326 119.594 14.2538 119.429 14.1713C119.099 14.0888 118.769 14.1094 118.439 14.2331C118.129 14.3569 117.82 14.5322 117.51 14.7591C117.222 14.9654 116.943 15.2026 116.675 15.4707C116.428 15.7182 116.201 15.9451 115.994 16.1514V24.0409C115.994 24.3503 115.933 24.6494 115.809 24.9381C115.623 25.4125 115.324 25.7425 114.912 25.9282C114.52 26.1138 114.117 26.1654 113.705 26.0829C113.313 26.0004 112.962 25.7941 112.653 25.4641C112.364 25.1341 112.22 24.7112 112.22 24.1956V15.5326ZM134.804 20.8541C135.299 20.7304 135.732 20.7304 136.103 20.8541C136.495 20.9573 136.794 21.1429 137 21.411C137.206 21.6792 137.299 22.0092 137.279 22.4011C137.258 22.793 137.083 23.2055 136.753 23.6387C136.485 23.9893 136.113 24.2884 135.639 24.5359C135.164 24.7834 134.721 24.9794 134.308 25.1238C133.298 25.495 132.339 25.7529 131.431 25.8972C130.524 26.0416 129.668 26.0416 128.863 25.8972C128.079 25.7529 127.337 25.4538 126.636 25C125.955 24.5462 125.315 23.9068 124.717 23.0818C124.305 22.5249 123.995 21.8958 123.789 21.1945C123.604 20.4726 123.5 19.7403 123.48 18.9978C123.459 18.2552 123.521 17.523 123.665 16.8011C123.81 16.0792 124.016 15.4295 124.284 14.8519C124.635 14.13 125.192 13.47 125.955 12.8718C126.718 12.2737 127.564 11.7993 128.492 11.4486C129.42 11.098 130.369 10.902 131.338 10.8608C132.308 10.7989 133.164 10.9433 133.906 11.2939C134.525 11.5827 135.051 12.0055 135.484 12.5624C135.938 13.0987 136.247 13.6866 136.412 14.326C136.577 14.9654 136.588 15.6151 136.443 16.2751C136.32 16.9145 135.99 17.5024 135.453 18.0387C134.938 18.5543 134.37 18.9772 133.752 19.3072C133.133 19.6166 132.493 19.895 131.833 20.1425C131.173 20.3694 130.493 20.5654 129.791 20.7304C129.111 20.8954 128.451 21.081 127.811 21.2873C128.244 21.7823 128.739 22.102 129.296 22.2464C129.853 22.3702 130.431 22.3908 131.029 22.3083C131.648 22.2258 132.266 22.0608 132.885 21.8133C133.504 21.5451 134.082 21.2564 134.618 20.947L134.804 20.8541ZM128.554 15.5326C128.079 15.8007 127.729 16.1411 127.502 16.5536C127.275 16.9455 127.11 17.5024 127.007 18.2243C127.543 18.0593 128.141 17.884 128.801 17.6983C129.482 17.5127 130.121 17.3168 130.72 17.1105C131.318 16.9042 131.823 16.6773 132.236 16.4298C132.648 16.1823 132.854 15.9142 132.854 15.6254C132.854 15.4604 132.823 15.3057 132.762 15.1613C132.72 14.9963 132.617 14.8829 132.452 14.821C131.875 14.6147 131.276 14.5735 130.658 14.6972C130.039 14.821 129.523 14.9963 129.111 15.2232L128.554 15.5326Z" fill="white"/>
</svg>
