<svg width="100" height="24" viewBox="0 0 100 24" fill="none" xmlns="http://www.w3.org/2000/svg">
<path d="M22.3532 10.3668L21.3532 10.3668L22.3532 10.3668ZM21.3532 10.3668L21.3532 16L23.3532 16L23.3532 10.3668L21.3532 10.3668ZM18.3532 19H5.99999V21H18.3532V19ZM3 16L3.00004 10.3662L1.00004 10.3662L1 16L3 16ZM9.67801 5.90565C10.3549 5.33974 11.2246 5 12.1762 5V3C10.7384 3 9.41848 3.51575 8.3952 4.37124L9.67801 5.90565ZM12.1762 5C13.1277 5 13.9973 5.33967 14.6741 5.90547L15.9568 4.37096C14.9336 3.51564 13.6138 3 12.1762 3V5ZM5.45088 7.91542C7.22993 7.91542 8.66942 6.74885 9.67801 5.90565L8.3952 4.37124C7.30919 5.27917 6.40199 5.91542 5.45088 5.91542V7.91542ZM3.00004 10.3662C3.00005 9.01268 4.09732 7.91542 5.45088 7.91542V5.91542C2.99276 5.91542 1.00006 7.9081 1.00004 10.3662L3.00004 10.3662ZM5.99999 19C4.34313 19 2.99999 17.6568 3 16L1 16C0.99998 18.7614 3.23855 21 5.99999 21V19ZM21.3532 16C21.3532 17.6569 20.01 19 18.3532 19V21C21.1146 21 23.3532 18.7615 23.3532 16L21.3532 16ZM18.9018 7.91542C20.2557 7.91542 21.3532 9.01295 21.3532 10.3668L23.3532 10.3668C23.3532 7.90839 21.3603 5.91542 18.9018 5.91542V7.91542ZM18.9018 5.91542C17.9505 5.91542 17.0431 5.27901 15.9568 4.37096L14.6741 5.90547C15.6829 6.74868 17.1226 7.91542 18.9018 7.91542V5.91542Z" fill="white"/>
<path d="M10.2053 8.36068L14.1215 8.34994L16.8982 11.1115L16.9089 15.0276L14.1474 17.8043L10.2312 17.8151L7.45454 15.0535L7.44381 11.1374L10.2053 8.36068Z" fill="#FF0000"/>
<circle cx="6" cy="10" r="1" fill="white"/>
<path d="M30.081 10.865H32.876C33.461 10.865 33.981 10.54 33.981 9.75999C33.981 8.97999 33.461 8.65499 32.876 8.65499H30.081V10.865ZM32.876 12.62H30.081V16H28.001V6.89999H32.876C34.826 6.89999 36.061 8.06999 36.061 9.75999C36.061 11.45 34.826 12.62 32.876 12.62Z" fill="white"/>
<path d="M39.1 6.89999V9.95499C39.555 9.36999 40.257 9.04499 41.141 9.04499C42.857 9.04499 43.923 10.085 43.923 11.905V16H41.947V12.035C41.947 11.19 41.57 10.67 40.686 10.67C39.737 10.67 39.1 11.32 39.1 12.425V16H37.124V6.89999H39.1Z" fill="white"/>
<path d="M52.2778 12.62C52.2778 14.635 50.8998 16.195 48.6638 16.195C46.4278 16.195 45.0498 14.635 45.0498 12.62C45.0498 10.605 46.4278 9.04499 48.6638 9.04499C50.8998 9.04499 52.2778 10.605 52.2778 12.62ZM50.3018 12.62C50.3018 11.71 49.8728 10.605 48.6638 10.605C47.4548 10.605 47.0258 11.71 47.0258 12.62C47.0258 13.53 47.4548 14.635 48.6638 14.635C49.8728 14.635 50.3018 13.53 50.3018 12.62Z" fill="white"/>
<path d="M54.3236 14.05V10.8H52.6986V9.23999H54.3236V7.67999H56.2996V9.23999H58.1846V10.8H56.2996V14.05C56.2996 14.375 56.4296 14.505 56.7546 14.505H58.1846V16H56.2346C54.9346 16 54.3236 15.415 54.3236 14.05Z" fill="white"/>
<path d="M66.0903 12.62C66.0903 14.635 64.7123 16.195 62.4763 16.195C60.2403 16.195 58.8623 14.635 58.8623 12.62C58.8623 10.605 60.2403 9.04499 62.4763 9.04499C64.7123 9.04499 66.0903 10.605 66.0903 12.62ZM64.1143 12.62C64.1143 11.71 63.6853 10.605 62.4763 10.605C61.2673 10.605 60.8383 11.71 60.8383 12.62C60.8383 13.53 61.2673 14.635 62.4763 14.635C63.6853 14.635 64.1143 13.53 64.1143 12.62Z" fill="white"/>
<path d="M71.524 12.464L70.939 12.386C69.041 12.139 67.598 11.398 67.598 9.47399C67.598 7.87499 68.898 6.70499 71.303 6.70499C73.838 6.70499 74.982 8.04399 75.073 9.36999H72.98C72.941 8.70699 72.512 8.23899 71.303 8.23899C69.977 8.23899 69.613 8.75899 69.613 9.26599C69.613 10.033 70.276 10.228 71.316 10.384L71.901 10.475C73.708 10.761 75.268 11.229 75.268 13.309C75.268 14.999 73.812 16.195 71.368 16.195C68.898 16.195 67.468 15.025 67.403 13.335H69.496C69.535 14.245 70.198 14.674 71.368 14.674C72.603 14.674 73.227 14.18 73.227 13.504C73.227 12.711 72.512 12.594 71.524 12.464Z" fill="#D44527"/>
<path d="M77.4642 14.05V10.8H75.8392V9.23999H77.4642V7.67999H79.4402V9.23999H81.3252V10.8H79.4402V14.05C79.4402 14.375 79.5702 14.505 79.8952 14.505H81.3252V16H79.3752C78.0752 16 77.4642 15.415 77.4642 14.05Z" fill="#D44527"/>
<path d="M89.2309 12.62C89.2309 14.635 87.8529 16.195 85.6169 16.195C83.3809 16.195 82.0029 14.635 82.0029 12.62C82.0029 10.605 83.3809 9.04499 85.6169 9.04499C87.8529 9.04499 89.2309 10.605 89.2309 12.62ZM87.2549 12.62C87.2549 11.71 86.8259 10.605 85.6169 10.605C84.4079 10.605 83.9789 11.71 83.9789 12.62C83.9789 13.53 84.4079 14.635 85.6169 14.635C86.8259 14.635 87.2549 13.53 87.2549 12.62Z" fill="#D44527"/>
<path d="M92.4174 9.23999V10.02C92.7424 9.49999 93.4574 9.04499 94.4974 9.04499C96.5384 9.04499 97.6564 10.67 97.6564 12.62C97.6564 14.57 96.5384 16.195 94.4974 16.195C93.4574 16.195 92.7424 15.74 92.4174 15.22V18.34H90.4414V9.23999H92.4174ZM92.3524 12.62C92.3524 14.05 93.2234 14.635 94.0164 14.635C94.9264 14.635 95.6804 14.05 95.6804 12.62C95.6804 11.19 94.9264 10.605 94.0164 10.605C93.2234 10.605 92.3524 11.19 92.3524 12.62Z" fill="#D44527"/>
</svg>
