<svg width="48" height="24" viewBox="0 0 48 24" fill="none" xmlns="http://www.w3.org/2000/svg">
<path d="M27.854 18.3243L26.354 18.3243L27.854 18.3243ZM19.1622 3.54039L18.1583 4.65496L19.1622 3.54039ZM23.3645 7.20337H23.8541V4.20337H23.3645V7.20337ZM26.3541 9.70338L26.354 18.3243L29.354 18.3244L29.3541 9.7034L26.3541 9.70338ZM23.854 20.8243H6V23.8243H23.854V20.8243ZM3.5 18.3243L3.50006 9.70335L0.500062 9.70332L0.5 18.3243L3.5 18.3243ZM6.00006 7.20337H6.48861V4.20337H6.00006V7.20337ZM11.6948 4.65496C12.4932 3.93585 13.5464 3.5 14.705 3.5V0.5C12.7765 0.5 11.015 1.22979 9.68707 2.42582L11.6948 4.65496ZM14.705 3.5H15.1481V0.5H14.705V3.5ZM15.1481 3.5C16.3067 3.5 17.3599 3.93585 18.1583 4.65496L20.166 2.42582C18.8381 1.22979 17.0766 0.5 15.1481 0.5V3.5ZM6.48861 7.20337C8.74611 7.20337 10.5231 5.71029 11.6948 4.65496L9.68707 2.42582C8.45535 3.5352 7.4657 4.20337 6.48861 4.20337V7.20337ZM3.50006 9.70335C3.50007 8.32264 4.61936 7.20337 6.00006 7.20337V4.20337C2.96251 4.20337 0.500084 6.66577 0.500062 9.70332L3.50006 9.70335ZM6 20.8243C4.61928 20.8243 3.49999 19.705 3.5 18.3243L0.5 18.3243C0.499978 21.3619 2.96242 23.8243 6 23.8243V20.8243ZM26.354 18.3243C26.354 19.705 25.2347 20.8243 23.854 20.8243V23.8243C26.8916 23.8243 29.354 21.3619 29.354 18.3244L26.354 18.3243ZM23.8541 7.20337C25.2348 7.20337 26.3541 8.32266 26.3541 9.70338L29.3541 9.7034C29.3541 6.66582 26.8917 4.20337 23.8541 4.20337V7.20337ZM23.3645 4.20337C22.3874 4.20337 21.3977 3.5352 20.166 2.42582L18.1583 4.65496C19.33 5.71029 21.107 7.20337 23.3645 7.20337V4.20337Z" fill="black"/>
<path d="M12.423 7.53926L17.3976 7.52563L20.9247 11.0335L20.9384 16.0081L17.4305 19.5352L12.4559 19.5489L8.92877 16.041L8.91514 11.0664L12.423 7.53926Z" fill="#FF0000"/>
<circle cx="6.354" cy="9.82431" r="1.5" fill="black"/>
</svg>
