<svg width="48" height="24" viewBox="0 0 48 24" fill="none" xmlns="http://www.w3.org/2000/svg">
<path d="M22.8299 3.16048C21.4319 1.76744 19.5711 1 17.5922 1C15.9044 1 14.303 1.5577 13 2.58702C11.697 1.55891 10.0944 1 8.40775 1C6.42886 1 4.56931 1.76744 3.17008 3.16048C1.77085 4.55351 1 6.40483 1 8.37496C1 10.3451 1.77085 12.1964 3.17008 13.5894L12.3546 22.7333C12.5263 22.9042 12.7577 23 13 23C13.2423 23 13.4749 22.9042 13.6454 22.7333L22.8299 13.5894C24.2291 12.1964 25 10.3451 25 8.37496C25 6.40483 24.2291 4.55351 22.8299 3.16048ZM16.0444 12.3152H13.9133V14.4369C13.9133 14.9388 13.5042 15.3462 13 15.3462C12.4958 15.3462 12.0867 14.9388 12.0867 14.4369V12.3152H9.95555C9.45139 12.3152 9.04222 11.9079 9.04222 11.4059C9.04222 10.904 9.45139 10.4966 9.95555 10.4966H12.0867V8.37496C12.0867 7.87303 12.4958 7.46567 13 7.46567C13.5042 7.46567 13.9133 7.87303 13.9133 8.37496V10.4966H16.0444C16.5486 10.4966 16.9578 10.904 16.9578 11.4059C16.9578 11.9079 16.5486 12.3152 16.0444 12.3152Z" fill="white"/>
</svg>
