<svg width="100" height="24" viewBox="0 0 100 24" fill="none" xmlns="http://www.w3.org/2000/svg">
<path d="M13.1178 1.99895C13.8347 1.38745 14.4715 1.21877 15.2137 1.06695C14.83 1.77122 14.4842 2.33632 14.2227 2.93516C14.1384 3.13337 14.1805 3.50448 14.3197 3.6563C15.0408 4.44491 15.3402 5.35583 15.4625 6.41434C15.6439 7.98313 16.015 9.53084 16.2554 11.0912C16.3988 12.019 16.4452 13.0227 15.5005 13.5709C15.0408 13.8366 14.3829 13.9083 13.8389 13.8408C13.3329 13.7775 13.0124 13.3263 13.1009 12.7232C13.2654 11.593 12.8732 10.8086 11.8695 10.2688C11.4731 10.0538 11.0345 9.91038 10.676 9.64892C10.2375 9.33263 9.60488 9.15129 9.36028 8.03795C9.06508 8.37111 9.07351 9.34106 9.37293 9.83448C9.60488 10.214 9.90008 10.5683 10.2206 10.8761C12.928 13.4908 13.7124 16.1771 11.6502 20.6389C10.9502 22.1571 9.93382 23.3379 8.90482 24C8.98495 22.3637 8.03608 21.3094 6.93118 20.3564C5.82206 19.3948 4.66234 18.4966 3.56165 17.5224C1.88321 16.038 0.495758 14.3384 0.124645 12.0401C-0.453109 8.45124 1.01869 5.65946 3.68817 3.42435C5.54795 1.864 7.71558 1.2019 10.17 1.51819C11.102 0.236162 12.4726 0 13.4847 0C12.9955 0.476542 12.9744 1.34528 13.1262 1.99895H13.1178Z" fill="black"/>
<path d="M29.256 20.336C28.568 20.336 27.904 20.256 27.264 20.096C26.624 19.936 26.024 19.68 25.464 19.328C25.368 19.248 25.272 19.16 25.176 19.064C25.08 18.968 25.008 18.864 24.96 18.752C24.8 18.32 24.688 17.792 24.624 17.168C24.576 16.544 24.56 15.912 24.576 15.272C24.576 15.16 24.624 15.08 24.72 15.032C24.816 14.984 24.928 14.96 25.056 14.96C25.216 14.96 25.32 14.984 25.368 15.032C25.432 15.064 25.496 15.136 25.56 15.248C25.912 16.448 26.432 17.416 27.12 18.152C27.824 18.888 28.64 19.256 29.568 19.256C30.08 19.256 30.496 19.144 30.816 18.92C31.152 18.68 31.408 18.384 31.584 18.032C31.76 17.664 31.848 17.296 31.848 16.928C31.848 16.416 31.744 15.984 31.536 15.632C31.344 15.28 31.048 14.96 30.648 14.672C30.248 14.384 29.736 14.072 29.112 13.736C28.44 13.352 27.792 12.952 27.168 12.536C26.544 12.104 26.032 11.584 25.632 10.976C25.232 10.368 25.032 9.608 25.032 8.696C25.032 7.752 25.272 6.936 25.752 6.248C26.248 5.56 26.92 5.024 27.768 4.64C28.616 4.256 29.568 4.064 30.624 4.064C31.232 4.064 31.808 4.128 32.352 4.256C32.912 4.384 33.36 4.512 33.696 4.64C33.888 4.72 34.024 4.808 34.104 4.904C34.2 5 34.28 5.168 34.344 5.408C34.424 5.744 34.488 6.152 34.536 6.632C34.6 7.112 34.632 7.64 34.632 8.216C34.632 8.424 34.488 8.528 34.2 8.528C34.056 8.528 33.92 8.496 33.792 8.432C33.68 8.352 33.608 8.256 33.576 8.144C33.304 7.184 32.904 6.456 32.376 5.96C31.848 5.464 31.2 5.216 30.432 5.216C29.952 5.216 29.544 5.296 29.208 5.456C28.872 5.616 28.616 5.856 28.44 6.176C28.28 6.496 28.2 6.896 28.2 7.376C28.2 7.76 28.328 8.12 28.584 8.456C28.856 8.776 29.24 9.104 29.736 9.44C30.232 9.776 30.8 10.136 31.44 10.52C32.304 11.032 32.992 11.536 33.504 12.032C34.016 12.528 34.384 13.056 34.608 13.616C34.848 14.16 34.968 14.792 34.968 15.512C34.968 16.6 34.728 17.504 34.248 18.224C33.784 18.944 33.12 19.48 32.256 19.832C31.408 20.168 30.408 20.336 29.256 20.336ZM38.9554 20.336C38.5234 20.336 38.1234 20.232 37.7554 20.024C37.3874 19.816 37.0914 19.544 36.8674 19.208C36.6594 18.872 36.5554 18.504 36.5554 18.104C36.5554 17.56 36.7234 17.104 37.0594 16.736C37.4114 16.368 37.9234 16.04 38.5954 15.752L40.7314 14.816C41.0514 14.672 41.2434 14.544 41.3074 14.432C41.3874 14.32 41.4274 14.112 41.4274 13.808L41.4514 12.44C41.4674 11.992 41.3874 11.64 41.2114 11.384C41.0354 11.112 40.7714 10.976 40.4194 10.976C40.2114 10.976 40.0034 11.024 39.7954 11.12C39.5874 11.2 39.4274 11.296 39.3154 11.408C39.2674 11.472 39.2274 11.552 39.1954 11.648C39.1794 11.728 39.1714 11.816 39.1714 11.912C39.1714 12.008 39.1794 12.128 39.1954 12.272C39.2114 12.4 39.2194 12.512 39.2194 12.608C39.2194 12.704 39.0914 12.832 38.8354 12.992C38.5794 13.136 38.2834 13.272 37.9474 13.4C37.6114 13.512 37.3234 13.568 37.0834 13.568C36.9714 13.568 36.8674 13.52 36.7714 13.424C36.6914 13.328 36.6514 13.208 36.6514 13.064C36.6514 12.808 36.7394 12.56 36.9154 12.32C37.0914 12.064 37.3794 11.776 37.7794 11.456C38.1954 11.104 38.6514 10.792 39.1474 10.52C39.6434 10.248 40.1314 10.032 40.6114 9.872C41.1074 9.712 41.5234 9.632 41.8594 9.632C42.7234 9.632 43.4114 9.912 43.9234 10.472C44.4354 11.016 44.6754 11.744 44.6434 12.656L44.5234 17.504C44.5074 17.872 44.5714 18.184 44.7154 18.44C44.8594 18.696 45.0354 18.824 45.2434 18.824C45.5474 18.824 45.8114 18.72 46.0354 18.512C46.0834 18.464 46.1314 18.44 46.1794 18.44C46.2594 18.44 46.3234 18.464 46.3714 18.512C46.4354 18.56 46.4674 18.624 46.4674 18.704C46.4674 18.896 46.3234 19.144 46.0354 19.448C45.7314 19.736 45.4114 19.952 45.0754 20.096C44.7394 20.256 44.3874 20.336 44.0194 20.336C43.1234 20.336 42.3794 19.88 41.7874 18.968H41.7394C41.2114 19.448 40.7314 19.792 40.2994 20C39.8834 20.224 39.4354 20.336 38.9554 20.336ZM40.3954 18.776C40.5714 18.776 40.7154 18.752 40.8274 18.704C40.9394 18.64 41.0514 18.544 41.1634 18.416C41.2114 18.352 41.2514 18.272 41.2834 18.176C41.3154 18.064 41.3314 17.936 41.3314 17.792L41.4034 16.064C41.4034 15.904 41.3794 15.8 41.3314 15.752C41.2834 15.704 41.2274 15.68 41.1634 15.68C41.1314 15.68 41.0914 15.688 41.0434 15.704C40.9954 15.72 40.9394 15.744 40.8754 15.776C40.4114 16 40.0674 16.232 39.8434 16.472C39.6194 16.696 39.5074 17.064 39.5074 17.576C39.5074 18.04 39.6034 18.36 39.7954 18.536C39.9874 18.696 40.1874 18.776 40.3954 18.776ZM54.9748 20.456C54.9268 20.456 54.8548 20.4 54.7588 20.288C54.6788 20.192 54.6388 20.112 54.6388 20.048C54.6708 19.808 54.6948 19.584 54.7108 19.376C54.7428 19.152 54.7588 18.952 54.7588 18.776V18.632C54.4388 19.128 53.9908 19.536 53.4148 19.856C52.8548 20.176 52.2468 20.336 51.5908 20.336C50.6948 20.336 49.8948 20.112 49.1908 19.664C48.5028 19.216 47.9588 18.608 47.5588 17.84C47.1588 17.072 46.9588 16.232 46.9588 15.32C46.9588 14.232 47.1988 13.264 47.6788 12.416C48.1588 11.568 48.8308 10.904 49.6948 10.424C50.5588 9.928 51.5588 9.68 52.6948 9.68C52.9348 9.68 53.1828 9.704 53.4388 9.752C53.7108 9.784 53.9588 9.832 54.1828 9.896C54.4068 9.944 54.5108 9.968 54.4948 9.968C54.5588 9.968 54.5908 9.864 54.5908 9.656V6.8C54.5908 6.224 54.5188 5.808 54.3748 5.552C54.2308 5.296 53.9908 5.136 53.6548 5.072C53.4628 5.024 53.3668 4.904 53.3668 4.712C53.3668 4.504 53.4548 4.384 53.6308 4.352C54.2228 4.224 54.8308 4.064 55.4548 3.872C56.0948 3.664 56.6148 3.472 57.0148 3.296C57.2228 3.2 57.3668 3.144 57.4468 3.128C57.5268 3.096 57.5748 3.08 57.5908 3.08C57.7668 3.08 57.8548 3.176 57.8548 3.368C57.8548 3.32 57.8468 3.384 57.8308 3.56C57.8148 3.72 57.7988 3.936 57.7828 4.208C57.7668 4.48 57.7508 4.752 57.7348 5.024L57.6148 17.12C57.6148 17.664 57.6548 18.056 57.7348 18.296C57.8148 18.536 57.9588 18.656 58.1668 18.656C58.2468 18.656 58.3268 18.648 58.4068 18.632C58.5028 18.616 58.7348 18.6 59.1028 18.584C59.3268 18.568 59.4388 18.648 59.4388 18.824C59.4388 18.952 59.3908 19.088 59.2948 19.232C59.1988 19.376 59.1108 19.448 59.0308 19.448C58.4548 19.512 57.8468 19.616 57.2068 19.76C56.5828 19.904 55.9748 20.088 55.3828 20.312C55.2868 20.36 55.2068 20.392 55.1428 20.408C55.0788 20.44 55.0228 20.456 54.9748 20.456ZM52.8148 18.704C53.0548 18.704 53.3508 18.64 53.7028 18.512C54.0708 18.384 54.3668 18.2 54.5908 17.96L54.5668 12.656C54.5668 12.368 54.4548 12.088 54.2308 11.816C54.0228 11.528 53.7508 11.288 53.4148 11.096C53.0948 10.904 52.7748 10.808 52.4548 10.808C52.0708 10.808 51.7108 10.968 51.3748 11.288C51.0548 11.592 50.7908 12.032 50.5828 12.608C50.3908 13.168 50.2948 13.856 50.2948 14.672C50.2948 15.328 50.3588 15.904 50.4868 16.4C50.6308 16.896 50.8228 17.32 51.0628 17.672C51.3028 18.008 51.5748 18.264 51.8788 18.44C52.1828 18.616 52.4948 18.704 52.8148 18.704ZM67.842 20.456C67.794 20.456 67.722 20.4 67.626 20.288C67.546 20.192 67.506 20.112 67.506 20.048C67.538 19.808 67.562 19.584 67.578 19.376C67.61 19.152 67.626 18.952 67.626 18.776V18.632C67.306 19.128 66.858 19.536 66.282 19.856C65.722 20.176 65.114 20.336 64.458 20.336C63.562 20.336 62.762 20.112 62.058 19.664C61.37 19.216 60.826 18.608 60.426 17.84C60.026 17.072 59.826 16.232 59.826 15.32C59.826 14.232 60.066 13.264 60.546 12.416C61.026 11.568 61.698 10.904 62.562 10.424C63.426 9.928 64.426 9.68 65.562 9.68C65.802 9.68 66.05 9.704 66.306 9.752C66.578 9.784 66.826 9.832 67.05 9.896C67.274 9.944 67.378 9.968 67.362 9.968C67.426 9.968 67.458 9.864 67.458 9.656V6.8C67.458 6.224 67.386 5.808 67.242 5.552C67.098 5.296 66.858 5.136 66.522 5.072C66.33 5.024 66.234 4.904 66.234 4.712C66.234 4.504 66.322 4.384 66.498 4.352C67.09 4.224 67.698 4.064 68.322 3.872C68.962 3.664 69.482 3.472 69.882 3.296C70.09 3.2 70.234 3.144 70.314 3.128C70.394 3.096 70.442 3.08 70.458 3.08C70.634 3.08 70.722 3.176 70.722 3.368C70.722 3.32 70.714 3.384 70.698 3.56C70.682 3.72 70.666 3.936 70.65 4.208C70.634 4.48 70.618 4.752 70.602 5.024L70.482 17.12C70.482 17.664 70.522 18.056 70.602 18.296C70.682 18.536 70.826 18.656 71.034 18.656C71.114 18.656 71.194 18.648 71.274 18.632C71.37 18.616 71.602 18.6 71.97 18.584C72.194 18.568 72.306 18.648 72.306 18.824C72.306 18.952 72.258 19.088 72.162 19.232C72.066 19.376 71.978 19.448 71.898 19.448C71.322 19.512 70.714 19.616 70.074 19.76C69.45 19.904 68.842 20.088 68.25 20.312C68.154 20.36 68.074 20.392 68.01 20.408C67.946 20.44 67.89 20.456 67.842 20.456ZM65.682 18.704C65.922 18.704 66.218 18.64 66.57 18.512C66.938 18.384 67.234 18.2 67.458 17.96L67.434 12.656C67.434 12.368 67.322 12.088 67.098 11.816C66.89 11.528 66.618 11.288 66.282 11.096C65.962 10.904 65.642 10.808 65.322 10.808C64.938 10.808 64.578 10.968 64.242 11.288C63.922 11.592 63.658 12.032 63.45 12.608C63.258 13.168 63.162 13.856 63.162 14.672C63.162 15.328 63.226 15.904 63.354 16.4C63.498 16.896 63.69 17.32 63.93 17.672C64.17 18.008 64.442 18.264 64.746 18.44C65.05 18.616 65.362 18.704 65.682 18.704ZM73.3796 20.072C73.2356 20.072 73.1156 20.048 73.0196 20C72.9396 19.936 72.8996 19.848 72.8996 19.736C72.8996 19.608 72.9476 19.512 73.0436 19.448C73.1396 19.368 73.2756 19.304 73.4516 19.256C73.6916 19.176 73.8996 19.088 74.0756 18.992C74.2676 18.896 74.3636 18.68 74.3636 18.344V6.8C74.3636 6.368 74.2996 5.992 74.1716 5.672C74.0596 5.352 73.8036 5.152 73.4036 5.072C73.2436 5.04 73.1636 4.92 73.1636 4.712C73.1636 4.504 73.2356 4.384 73.3796 4.352C73.7956 4.272 74.2436 4.16 74.7236 4.016C75.2036 3.856 75.6596 3.696 76.0916 3.536C76.5236 3.36 76.8596 3.232 77.0996 3.152C77.2276 3.104 77.3316 3.08 77.4116 3.08C77.5076 3.08 77.5716 3.112 77.6036 3.176C77.6356 3.224 77.6516 3.288 77.6516 3.368C77.6516 3.48 77.6276 3.688 77.5796 3.992C77.5476 4.296 77.5236 4.64 77.5076 5.024V18.296C77.5076 18.648 77.5956 18.872 77.7716 18.968C77.9636 19.048 78.1796 19.128 78.4196 19.208C78.5956 19.272 78.7316 19.336 78.8276 19.4C78.9236 19.464 78.9716 19.56 78.9716 19.688C78.9716 19.8 78.9236 19.888 78.8276 19.952C78.7476 20 78.6356 20.024 78.4916 20.024C78.1876 20.024 77.8836 20.016 77.5796 20C77.2916 19.984 77.0036 19.976 76.7156 19.976C76.4436 19.96 76.1636 19.952 75.8756 19.952C75.6036 19.952 75.3316 19.96 75.0596 19.976C74.8036 19.992 74.5396 20.008 74.2676 20.024C73.9956 20.056 73.6996 20.072 73.3796 20.072ZM84.0249 20.336C83.1609 20.336 82.3849 20.112 81.6969 19.664C81.0249 19.2 80.4889 18.576 80.0889 17.792C79.7049 16.992 79.5129 16.088 79.5129 15.08C79.5129 14.072 79.7449 13.16 80.2089 12.344C80.6729 11.512 81.3049 10.856 82.1049 10.376C82.9049 9.88 83.7849 9.632 84.7449 9.632C85.4329 9.632 86.0489 9.784 86.5929 10.088C87.1369 10.376 87.5689 10.768 87.8889 11.264C88.2249 11.76 88.3929 12.32 88.3929 12.944C88.3929 13.552 88.1449 13.856 87.6489 13.856H82.8489C82.6249 13.856 82.4569 13.92 82.3449 14.048C82.2489 14.176 82.2009 14.392 82.2009 14.696C82.2009 15.304 82.3369 15.864 82.6089 16.376C82.8809 16.872 83.2489 17.264 83.7129 17.552C84.1769 17.84 84.7129 17.984 85.3209 17.984C85.7849 17.984 86.2089 17.896 86.5929 17.72C86.9929 17.544 87.3849 17.304 87.7689 17C87.8329 16.952 87.8889 16.912 87.9369 16.88C88.0009 16.832 88.0569 16.808 88.1049 16.808C88.2649 16.808 88.3449 16.912 88.3449 17.12C88.3449 17.296 88.2809 17.536 88.1529 17.84C87.9929 18.24 87.7209 18.64 87.3369 19.04C86.9689 19.424 86.5049 19.736 85.9449 19.976C85.3849 20.216 84.7449 20.336 84.0249 20.336ZM82.8489 12.848H84.2889C84.7369 12.848 85.0489 12.84 85.2249 12.824C85.4009 12.808 85.5609 12.776 85.7049 12.728C85.7849 12.696 85.8489 12.616 85.8969 12.488C85.9449 12.36 85.9689 12.216 85.9689 12.056C85.9689 11.624 85.8169 11.272 85.5129 11C85.2249 10.728 84.8649 10.592 84.4329 10.592C84.0969 10.592 83.7769 10.688 83.4729 10.88C83.1849 11.056 82.9449 11.296 82.7529 11.6C82.5769 11.888 82.4969 12.192 82.5129 12.512C82.5129 12.736 82.6249 12.848 82.8489 12.848ZM92.9288 20.336C92.4008 20.336 91.8888 20.272 91.3928 20.144C90.8968 20.016 90.4488 19.808 90.0488 19.52C89.9048 19.28 89.8008 18.904 89.7368 18.392C89.6728 17.88 89.6488 17.344 89.6648 16.784C89.6648 16.592 89.8248 16.496 90.1448 16.496C90.2728 16.496 90.3848 16.536 90.4808 16.616C90.5768 16.696 90.6328 16.776 90.6488 16.856C90.9528 17.528 91.3048 18.104 91.7048 18.584C92.1048 19.048 92.5848 19.28 93.1448 19.28C93.5768 19.28 93.9048 19.152 94.1288 18.896C94.3528 18.624 94.4648 18.32 94.4648 17.984C94.4648 17.568 94.2968 17.224 93.9608 16.952C93.6408 16.664 93.2488 16.4 92.7848 16.16C92.3208 15.92 91.8808 15.648 91.4648 15.344C91.0488 15.04 90.7048 14.68 90.4328 14.264C90.1768 13.832 90.0488 13.32 90.0488 12.728C90.0488 12.104 90.2168 11.56 90.5527 11.096C90.9048 10.632 91.3688 10.272 91.9448 10.016C92.5368 9.744 93.1928 9.608 93.9128 9.608C94.4408 9.608 94.9288 9.672 95.3768 9.8C95.8248 9.912 96.1288 10.024 96.2888 10.136C96.4168 10.296 96.5208 10.6 96.6008 11.048C96.6808 11.48 96.7208 11.96 96.7208 12.488C96.7208 12.664 96.5768 12.752 96.2888 12.752C96.1768 12.752 96.0568 12.712 95.9288 12.632C95.8168 12.552 95.7448 12.472 95.7128 12.392C95.5048 11.768 95.2328 11.304 94.8968 11C94.5768 10.68 94.2168 10.52 93.8168 10.52C93.4648 10.52 93.1448 10.632 92.8568 10.856C92.5688 11.08 92.4248 11.384 92.4248 11.768C92.4248 12.104 92.5768 12.408 92.8808 12.68C93.2008 12.936 93.5928 13.192 94.0568 13.448C95.0968 13.992 95.8408 14.52 96.2888 15.032C96.7368 15.528 96.9608 16.192 96.9608 17.024C96.9608 18.064 96.6168 18.88 95.9288 19.472C95.2568 20.048 94.2568 20.336 92.9288 20.336Z" fill="black"/>
</svg>
