<svg width="48" height="24" viewBox="0 0 48 24" fill="none" xmlns="http://www.w3.org/2000/svg">
<path d="M12.8494 1.99895C13.5517 1.38745 14.1755 1.21877 14.9025 1.06695C14.5266 1.77122 14.1879 2.33632 13.9317 2.93516C13.8491 3.13337 13.8904 3.50448 14.0268 3.6563C14.7331 4.44491 15.0264 5.35582 15.1462 6.41434C15.3239 7.98313 15.6874 9.53084 15.9228 11.0912C16.0633 12.019 16.1087 13.0227 15.1834 13.5709C14.7331 13.8366 14.0887 13.9083 13.5558 13.8408C13.0601 13.7775 12.7462 13.3263 12.8329 12.7232C12.994 11.593 12.6099 10.8086 11.6267 10.2688C11.2384 10.0538 10.8088 9.91038 10.4576 9.64892C10.028 9.33263 9.40839 9.15129 9.1688 8.03795C8.87964 8.37111 8.8879 9.34106 9.18119 9.83448C9.40839 10.214 9.69756 10.5683 10.0115 10.8761C12.6636 13.4908 13.4319 16.1771 11.4119 20.6389C10.7262 22.1571 9.7306 23.3379 8.72266 24C8.80115 22.3637 7.87169 21.3094 6.78939 20.3564C5.70296 19.3948 4.56696 18.4966 3.48879 17.5224C1.84469 16.038 0.485616 14.3384 0.122096 12.0401C-0.44384 8.45124 0.99785 5.65946 3.61272 3.42435C5.43445 1.864 7.55774 1.2019 9.96194 1.51819C10.8749 0.236162 12.2174 0 13.2088 0C12.7296 0.476542 12.709 1.34528 12.8577 1.99895H12.8494Z" fill="white"/>
</svg>
