<?xml version="1.0" standalone="yes"?>
<svg xmlns="http://www.w3.org/2000/svg" width="352" height="352">
<path style="fill:#fffefe; stroke:none;" d="M0 0L0 352L352 352L352 0L0 0z"/>
<path style="fill:#b94b30; stroke:none;" d="M343 5C344.506 5.68304 345.315 5.8259 347 6C345.494 5.31696 344.685 5.1741 343 5M322 6C323.769 6.77893 325.036 6.91241 327 7C325.231 6.2211 323.964 6.08759 322 6z"/>
<path style="fill:#232323; stroke:none;" d="M8 345L83 345C83 245.825 142.69 151.501 232 108.258C268.021 90.8176 307.085 82 347 82L347 6C294.52 6 242.014 18.3016 195 41.8087C81.5523 98.5325 8 218.601 8 345z"/>
<path style="fill:#b94b30; stroke:none;" d="M311 7C312.506 7.68301 313.315 7.8259 315 8C313.494 7.31693 312.685 7.1741 311 7M302 8C303.506 8.68301 304.315 8.8259 306 9C304.494 8.31699 303.685 8.1741 302 8M296 9C297.248 9.68481 297.548 9.74881 299 10C297.752 9.31522 297.452 9.25119 296 9M290.667 10.3333C290.222 10.7777 291.278 10.7222 291.333 10.6667C291.778 10.2222 290.722 10.2778 290.667 10.3333M284 11C285.248 11.6848 285.548 11.7488 287 12C285.752 11.3152 285.452 11.2513 284 11M279.667 12.3333C279.222 12.7777 280.278 12.7223 280.333 12.6667C280.778 12.2222 279.722 12.2779 279.667 12.3333M270.667 14.3333C270.222 14.7777 271.278 14.7223 271.333 14.6667C271.778 14.2223 270.722 14.2778 270.667 14.3333M266.667 15.3333C266.222 15.7777 267.278 15.7222 267.333 15.6667C267.778 15.2223 266.722 15.2778 266.667 15.3333M262.667 16.3333C262.222 16.7777 263.278 16.7222 263.333 16.6667C263.778 16.2222 262.722 16.2778 262.667 16.3333M258.667 17.3333C258.222 17.7777 259.278 17.7223 259.333 17.6667C259.778 17.2222 258.722 17.2778 258.667 17.3333M255 18L256 19L255 18M251.667 19.3333C251.222 19.7779 252.278 19.7221 252.333 19.6667C252.778 19.2224 251.722 19.2777 251.667 19.3333M248 20L249 21L248 20M245 21L246 22L245 21M242 22L243 23L242 22M239 23L240 24L239 23M236 24L237 25L236 24M233 25L234 26L233 25M230 26L231 27L230 26M228 27L229 28L228 27M225 28L226 29L225 28M220 30L221 31L220 30M215 32L216 33L215 32M213 33L214 34L213 33M208 35L209 36L208 35M206 36L207 37L206 36M204 37L205 38L204 37M202 38L203 39L202 38M200 39L201 40L200 39M190 44L191 45L190 44M188 45L189 46L188 45M186 46L187 47L186 46M184 47L185 48L184 47M179 50L180 51L179 50M177 51L178 52L177 51M172 54L173 55L172 54M169 56L170 57L169 56M167 57L168 58L167 57M164 59L165 60L164 59M161 61L162 62L161 61M158 63L159 64L158 63M155 65L156 66L155 65M152 67L153 68L152 67M149 69L150 70L149 69M148 70L149 71L148 70M145 72L146 73L145 72M144 73L145 74L144 73M141 75L142 76L141 75M140 76L141 77L140 76M136 79L137 80L136 79M135 80L136 81L135 80M326 82C328.052 82.8742 329.747 82.9528 332 83C329.948 82.1258 328.253 82.0472 326 82M131 83L132 84L131 83M315 83C316.248 83.6848 316.548 83.7488 318 84C316.752 83.3152 316.452 83.2512 315 83M130 84L131 85L130 84M308.667 84.3333C308.222 84.7777 309.278 84.7222 309.333 84.6667C309.778 84.2223 308.722 84.2778 308.667 84.3333M302 85C303.248 85.6848 303.548 85.7488 305 86C303.752 85.3152 303.452 85.2513 302 85M296 86C297.248 86.6848 297.548 86.7488 299 87C297.752 86.3152 297.452 86.2512 296 86M292.667 87.3333C292.222 87.7777 293.278 87.7222 293.333 87.6667C293.778 87.2222 292.722 87.2778 292.667 87.3333M125 88L126 89L125 88M287.667 88.3333C287.222 88.7777 288.278 88.7222 288.333 88.6667C288.778 88.2222 287.722 88.2778 287.667 88.3333M124 89L125 90L124 89M283.667 89.3333C283.222 89.7777 284.278 89.7223 284.333 89.6667C284.778 89.2223 283.722 89.2778 283.667 89.3333M123 90L124 91L123 90M279.667 90.3333C279.222 90.7777 280.278 90.7223 280.333 90.6667C280.778 90.2222 279.722 90.2778 279.667 90.3333M276 91L277 92L276 91M272.667 92.3333C272.222 92.7777 273.278 92.7223 273.333 92.6667C273.778 92.2222 272.722 92.2778 272.667 92.3333M269 93L270 94L269 93M266 94L267 95L266 94M263 95L264 96L263 95M116 96L117 97L116 96M260 96L261 97L260 96M115 97L116 98L115 97M257 97L258 98L257 97M114 98L115 99L114 98M254 98L255 99L254 98M113 99L114 100L113 99M252 99L253 100L252 99M112 100L113 101L112 100M249 100L250 101L249 100M111 101L112 102L111 101M247 101L248 102L247 101M110 102L111 103L110 102M244 102L245 103L244 102M109 103L110 104L109 103M242 103L243 104L242 103M108 104L109 105L108 104M240 104L241 105L240 104M107 105L108 106L107 105M106 106L107 107L106 106M235 106L236 107L235 106M105 107L106 108L105 107M233 107L234 108L233 107M104 108L105 109L104 108M231 108L232 109L231 108M103 109L104 110L103 109M229 109L230 110L229 109M102 110L103 111L102 110M227 110L228 111L227 110M101 111L102 112L101 111M225 111L226 112L225 111M100 112L101 113L100 112M223 112L224 113L223 112M99 113L100 114L99 113M98 114L99 115L98 114M218 115L219 116L218 115M216 116L217 117L216 116M214 117L215 118L214 117M211 119L212 120L211 119M93 120L94 121L93 120M209 120L210 121L209 120M92 121L93 122L92 121M91 122L92 123L91 122M206 122L207 123L206 122M90 123L91 124L90 123M203 124L204 125L203 124M200 126L201 127L200 126M86 128L87 129L86 128M197 128L198 129L197 128M85 129L86 130L85 129M194 130L195 131L194 130M191 132L192 133L191 132M82 133L83 134L82 133M190 133L191 134L190 133M81 134L82 135L81 134M187 135L188 136L187 135M186 136L187 137L186 136M78 138L79 139L78 138M77 139L78 140L77 139M182 139L183 140L182 139M181 140L182 141L181 140M75 142L76 143L75 142M74 143L75 144L74 143M177 143L178 144L177 143M176 144L177 145L176 144M175 145L176 146L175 145M72 146L73 147L72 146M71 147L72 148L71 147M70 149L71 150L70 149M69 150L70 151L69 150M169 150L170 151L169 150M168 151L169 152L168 151M167 152L168 153L167 152M67 153L68 154L67 153M166 153L167 154L166 153M165 154L156 163C162.012 171.535 170.626 178.626 178 186L218 226L342 350C344.75 348.061 349.794 344.851 349.793 341C349.793 336.626 342.804 331.804 340 329L309 298C276.499 265.499 244.513 232.513 212 200L183 171C177.22 165.22 171.692 158.714 165 154M65 156L66 157L65 156M63 159L64 160L63 159M61 162L62 163L61 162M155 164L156 165L155 164M59 165L60 166L59 165M154 165L155 166L154 165M153 166L154 167L153 166M58 167L59 168L58 167M152 167L153 168L152 167M151 168L152 169L151 168M56 170L57 171L56 170M55 172L56 173L55 172M146 174L147 175L146 174M53 175L54 176L53 175M145 175L146 176L145 175M144 176L145 177L144 176M52 177L53 178L52 177M51 179L52 180L51 179M141 180L142 181L141 180M140 181L141 182L140 181M49 182L50 183L49 182M48 184L49 185L48 184M137 185L138 186L137 185M47 186L48 187L47 186M46 188L47 189L46 188M134 189L135 190L134 189M45 190L46 191L45 190M44 192L45 193L44 192M132 192L133 193L132 192M131 193L132 194L131 193M43 194L44 195L43 194M42 196L43 197L42 196M129 196L130 197L129 196M41 198L42 199L41 198M127 199L128 200L127 199M40 200L41 201L40 200M39 202L40 203L39 202M125 202L126 203L125 202M38 204L39 205L38 204M124 204L125 205L124 204M123 205L124 206L123 205M122 207L123 208L122 207M36 209L37 210L36 209M120 210L121 211L120 210M35 211L36 212L35 211M119 212L120 213L119 212M34 213L35 214L34 213M117 215L118 216L117 215M33 216L34 217L33 216M116 217L117 218L116 217M32 218L33 219L32 218M115 219L116 220L115 219M31 221L32 222L31 221M114 221L115 222L114 221M30 223L31 224L30 223M113 223L114 224L113 223M29 226L30 227L29 226M28 229L29 230L28 229M27 231L28 232L27 231M109 231L110 232L109 231M108 233L109 234L108 233M26 234L27 235L26 234M107 235L108 236L107 235M25 237L26 238L25 237M106 237L107 238L106 237M105 239L106 240L105 239M24 240L25 241L24 240M23 243L24 244L23 243M103 244L104 245L103 244M22.3333 246.667C22.2778 246.722 22.2222 247.778 22.6667 247.333C22.7222 247.278 22.7778 246.222 22.3333 246.667M102 246L103 247L102 246M101 249L102 250L101 249M21 250L22 251L21 250M100 251L101 252L100 251M20.3333 253.667C20.2778 253.722 20.2222 254.778 20.6667 254.333C20.7222 254.278 20.7778 253.222 20.3333 253.667M99 254L100 255L99 254M98 257L99 258L98 257M97 260L98 261L97 260M96 263L97 264L96 263M95 266L96 267L95 266M94 269L95 270L94 269M93 272L94 273L93 272M15 273L16 274L15 273M92 276L93 277L92 276M14.3333 278.667C14.2778 278.722 14.2222 279.778 14.6667 279.333C14.7222 279.278 14.7778 278.222 14.3333 278.667M91.3333 279.667C91.2778 279.722 91.2222 280.778 91.6667 280.333C91.7222 280.278 91.7778 279.222 91.3333 279.667M13 283L14 284L13 283M90.3333 283.667C90.2778 283.722 90.2222 284.778 90.6667 284.333C90.7222 284.278 90.7778 283.222 90.3333 283.667M89 288L90 289L89 288M88 291L88 294C88.6961 292.446 88.6961 292.554 88 291M11 295L11 298C11.6961 296.446 11.6961 296.554 11 295M87 296L87 299C87.6961 297.446 87.6961 297.554 87 296M10.3333 302.667C10.2778 302.722 10.2222 303.778 10.6667 303.333C10.7222 303.278 10.7778 302.222 10.3333 302.667M86 302L86 305C86.6961 303.446 86.6961 303.554 86 302M85 308L85 312C85.7102 310.241 85.7102 309.759 85 308M9.33333 310.667C9.27777 310.722 9.22223 311.778 9.66667 311.333C9.72221 311.278 9.77778 310.222 9.33333 310.667M84 316L84 321C84.8299 318.97 84.8299 318.03 84 316M8 321L8 324C8.6961 322.446 8.6961 322.554 8 321M83 329L83 336C84.0595 333.466 84.0595 331.534 83 329M7 343C8.1357 348.3 20.4234 346 25 346L83 346C77.7835 343.811 70.6191 345 65 345L27 345C20.4818 345 12.859 346.258 7 343z"/>
</svg>
