<svg width="150" height="36" viewBox="0 0 150 36" fill="none" xmlns="http://www.w3.org/2000/svg">
<path d="M11.5853 20.7045L25.7834 34.9203" stroke="#D44527" stroke-width="2" stroke-miterlimit="10"/>
<path d="M5.73175 34.9204H0C0.0176525 28.0768 2.74078 21.5185 7.57406 16.6793C12.4073 11.8401 18.9576 9.11361 25.7929 9.09593V14.8825C20.4806 14.8825 15.3852 16.9921 11.6244 20.7486C7.86358 24.505 5.7444 29.6016 5.73175 34.9204ZM34.3905 15.9634C34.7917 14.0504 36.3011 12.9696 39.5778 12.9696C43.5613 12.9696 44.9561 14.7199 44.9561 17.7519V18.2493L36.5877 18.9953C30.6076 19.5405 26.7768 22.2377 26.7768 27.2305C26.7768 32.9692 31.1043 35.7047 36.3298 35.7047C41.0585 35.7047 43.4562 33.964 44.9274 31.9649V34.9587H51.1081V17.7424C51.2294 15.5644 50.5497 13.4174 49.1976 11.7071C47.287 9.41158 43.8193 8.26382 39.5873 8.26382C32.757 8.26382 28.8212 11.3054 28.0283 15.992L34.3905 15.9634ZM37.2851 30.8937C34.6962 30.8937 32.9003 29.6407 32.9003 27.1539C32.9003 24.9063 34.4956 23.6055 36.7883 23.4142L44.9083 22.6586V23.6629C44.9083 28.4356 41.517 30.8937 37.2851 30.8937ZM75.2006 34.8822H81.3813V0H75.2006V12.2236C73.7104 9.9759 71.0642 8.23512 67.0806 8.23512C59.3619 8.23512 55.0248 14.4713 55.0248 21.9508C55.0248 29.4303 59.3619 35.676 67.0806 35.676C71.0642 35.676 73.7104 33.9352 75.2006 31.6876V34.8822ZM75.449 21.9125C75.449 27.1539 72.4589 30.645 68.3321 30.645C63.8899 30.645 61.2056 27.4026 61.2056 21.9125C61.2056 16.4224 63.8899 13.18 68.3321 13.18C72.4589 13.2183 75.449 16.7094 75.449 21.9508V21.9125ZM87.0654 5.45182H93.2461V0H87.0654V5.45182ZM87.0654 34.8822H93.2461V8.98116H87.0654V34.8822ZM116.613 34.8822H122.793V8.98116H116.613V23.242C116.613 28.0243 113.966 30.4729 110.231 30.4729C106.496 30.4729 104.853 28.4739 104.853 24.7341V8.98116H98.6721V25.241C98.6721 31.9363 102.493 35.7143 108.741 35.7143C112.228 35.7143 115.113 34.4709 116.613 31.9745V34.8822ZM139.033 24.8967C141.899 25.241 143.81 25.5949 143.81 27.9861C143.81 29.899 142.119 31.2285 138.536 31.2285C135.145 31.2285 133.206 30.0807 133.101 27.4026H126.825C127.025 32.2902 131.41 35.6282 138.536 35.6282C145.663 35.6282 150 32.3858 150 27.4026C150 21.2621 145.271 19.5214 140.036 18.9188L138.298 18.7179C135.308 18.3736 133.521 17.5224 133.521 15.4755C133.521 14.0313 134.811 12.6062 138.451 12.6062C141.689 12.6062 143.227 14.0504 143.284 15.9442H149.513C149.217 12.1184 145.692 8.21601 138.556 8.21601C131.63 8.21601 127.34 11.3054 127.34 16.0494C127.34 21.6352 131.821 24.0263 137.304 24.6576L139.033 24.8967Z" fill="#262626"/>
</svg>
